<?xml version="1.0" encoding="UTF-8"?>
<svg enable-background="new 0 0 500 445" version="1.1" viewBox="0 0 500 445" xml:space="preserve" xmlns="http://www.w3.org/2000/svg">
<path d="m1 156v-155h500v445h-500v-290m117.97 249.98s-0.016724 0.024353-0.48892 0.39478c-0.43072 0.87702-0.86144 1.754-1.6362 3.2315-1.0718 1.6343-2.0854 3.3109-3.2294 4.893-1.6478 2.2788-3.5352 2.7983-5.9139-0.018494-0.53181-0.57654-1.0636-1.1531-1.5611-2.3181-0.011314-0.39267-0.022629-0.78534 0.0607-1.7888-1.4771-4.4465-2.9542-8.893-4.5733-13.964-0.89932-1.1134-1.7986-2.2268-3.1868-3.8268-4.8334-2.1799-7.0843-1.1008-7.2657 3.9236-0.22826 6.323-0.055687 12.661-0.043541 18.992 0.011177 5.8315-0.19472 11.679 0.20148 17.485 0.11922 1.747 1.9337 3.3783 2.9715 5.0625 1.1615-1.7249 3.0895-3.3506 3.3282-5.1949 0.53072-4.1005 0.11438-8.3147 0.29248-12.474 0.077004-1.7981 0.66959-3.5741 1.028-5.3601 0.55984-0.12485 1.1197-0.24973 1.6795-0.37457 2.0426 3.4806 4.0085 7.0091 6.146 10.43 3.1008 4.9632 7.7426 4.8026 10.326-0.42026 0.85961-1.7376 1.089-3.787 2.0319-6.2743 0.57701-1.7885 1.154-3.5769 2.1485-5.8638 0.59824-0.62662 1.1965-1.2532 2.381-1.8315 0.38987-0.013855 0.77975-0.02774 1.3506 0.77731 0.15764 0.8237 0.31528 1.6474 0.33058 3.2925 0.053131 1.1022 0.10626 2.2044 0.069427 4.192 0.030457 2.6565 0.060913 5.313-0.029648 8.8666-0.055916 1.9927-0.55927 4.1139-0.03498 5.9401 0.47222 1.6448 2.0708 2.9662 3.1726 4.4302 1.0522-1.4837 2.8968-2.9095 3.0104-4.4619 0.3627-4.9567 0.082779-9.9603 0.03328-15.704 0.003952-1.2632 0.007888-2.5263 0.15012-4.6941-0.045228-1.5168-0.090455-3.0337-0.13173-5.4284-0.13124-4.6215-0.26248-9.2429-0.39482-14.419-3.1124-3.2845-4.4047-3.0926-7.1196 1.6681-0.12445 0.77188-0.24889 1.5438-0.75707 2.3799 0 0-0.35948 0.14877-0.7492 0.23535-0.36447 0.5137-0.72894 1.0274-1.2872 2.1848-0.41386 1.2762-0.82773 2.5525-1.5924 4.3393-0.22919 0.56702-0.45837 1.134-0.71681 1.697m248.64-180.12c0.81052-0.56409 1.621-1.1282 2.9596-1.8834 0.35532-0.11781 0.71066-0.23564 1.6244-0.54802 0.58322-0.50102 1.1664-1.002 2.1252-1.6527 0 0 0.38422-0.12575 0.9389-0.28757 0.59393-0.46457 1.1879-0.92914 2.3021-1.5732 0.3494-0.11186 0.69876-0.22374 1.6022-0.51073 0.5622-0.49513 1.1244-0.99028 2.1366-1.6448 0 0 0.45654-0.1398 0.9873-0.30893 0.54059-0.48732 1.0811-0.97462 2.1455-1.5994 0.35635-0.054779 0.71274-0.10954 1.6704-0.3745 0.62552-0.54289 1.251-1.0858 2.1417-1.7134 0 0 0.27707-0.026596 0.8812-0.2488 0.63361-0.5506 1.2672-1.1012 2.1526-1.7397 0 0 0.26401-0.037262 0.98175-0.18362 0.75311-0.34282 1.5845-0.57512 2.2478-1.0448 13.775-9.7531 22.651-32.506 18.775-48.831-0.81302-3.4243-2.7973-6.5704-4.4237-10.514-5.0048-9.3064-10.083-18.551-20.409-24.318-0.8259-0.3895-1.6518-0.779-2.714-1.7221-2.4447-2.9445-4.1722-1.2723-5.0425 1.1668-0.6987 1.958-0.64917 4.2383-0.66153 6.3771-0.10846 18.746-0.15628 37.493-0.6138 56.719-1.1021 1.218-2.2042 2.436-3.9181 3.5601-3.8694-0.22571-8.0844 0.44803-11.532-0.87621-6.0035-2.306-5.9964-8.3725-5.9718-13.684 0.0961-20.805 0.40695-41.609 0.70151-62.413 0.065369-4.6153-0.92993-8.5901-5.2586-11.072-5.6301-3.2277-11.176-6.6085-16.883-9.6939-5.4252-2.9334-7.3393-1.839-7.4244 4.2684-0.13913 9.99-0.028534 19.983-0.048218 29.975-0.015778 7.9928 0.15298 15.995-0.17688 23.975-0.25336 6.1293-4.7192 10.263-10.579 10.573-6.476 0.34248-10.849-3.0256-11.908-9.5282-0.47858-2.9377-0.52554-5.9683-0.53036-8.9571-0.032074-19.793-0.073333-39.586 0.058106-59.379 0.038208-5.7534-1.96-9.9164-7.2524-12.525-3.4269-1.689-6.5385-4.0302-9.9948-5.6433-2.8678-1.3385-6.0328-2.0402-9.0661-3.0241-0.83331 3.2191-2.3789 6.4353-2.3916 9.6576-0.155 39.467 0.005371 78.935-0.19366 118.4-0.023681 4.699-1.198 9.5538-2.6975 14.05-3.1725 9.5132-10.88 15.755-18.168 22.972-2.7151 1.9992-5.4303 3.9984-8.8807 6.1289-1.414 0.48625-2.908 0.81453-4.2298 1.4831-13.787 6.9742-28.322 9.6196-43.624 7.342-12.941-1.9262-24.094-7.3522-28.26-20.539-3.3264-10.529-2.7994-21.765 3.9399-31.184 16.982-23.734 41.014-32.916 69.433-31.865 8.0726 0.29852 9.3979-0.38179 9.4453-8.5779 0.040512-6.9996-0.020721-14-0.017379-21 0.012054-25.15-0.10356-50.302 0.14824-75.45 0.060531-6.0473-1.6267-10.136-7.3985-12.657-3.9362-1.719-7.3846-4.5236-11.228-6.4978-2.2324-1.1467-4.8151-1.6115-7.2401-2.3831-0.72577 2.4222-2.0539 4.8379-2.0802 7.2677-0.18039 16.665-0.013092 33.332-0.1154 49.998-0.050583 8.2399-4.2649 12.882-11.325 12.98-7.4068 0.10278-11.471-3.8723-11.6-12.548-0.17844-11.986 0.29114-23.98 0.39861-35.971 0.091079-10.162 0.21996-20.328-0.003372-30.484-0.073456-3.3398-0.083237-7.3331-5.2738-8.3274-0.40811-0.20926-0.81621-0.41853-1.5736-1.2067-0.74945-0.47535-1.4989-0.95069-2.3269-1.361 0 0-0.090423-0.047086-0.67329-0.53818-1.4008-0.52145-2.8016-1.0429-4.5983-1.5494-0.26494-0.015323-0.5248-0.060166-1.4604-0.51556-1.2419-0.27898-2.4839-0.55797-4.3518-0.89237-1.0369-0.15569-2.0737-0.31138-3.7823-0.50794-0.22391 0.01349-0.44782 0.02698-1.0446 0.1644-0.24727 0.077418-0.49632 0.14862-1.4842 0.31875-0.93362 2.2688-2.6222 4.5206-2.6735 6.8092-0.25786 11.487-0.004577 22.984-0.10728 34.475-0.04303 4.8132-0.28667 9.6512-0.86804 14.426-0.59802 4.9113-3.9681 7.5723-8.6189 8.4734-5.0101 0.97065-9.1566-0.92148-11.202-5.4726-1.5205-3.3831-2.4555-7.2995-2.5466-11.006-0.30258-12.318 0.006943-24.65-0.20496-36.972-0.038422-2.2345-0.8389-5.2599-2.3972-6.3895-1.0892-0.78959-4.3968 0.55072-6.1528 1.7564-15.859 10.889-23.769 26.213-23.941 45.307-0.23466 25.982-0.059913 51.967-0.057075 77.951 0.005035 45.972-0.10667 91.944 0.062248 137.91 0.10923 29.725 23.502 52.641 53.13 53.013 12.232 0.15338 22.78-4.1729 32.798-10.407 3.1627-1.9682 5.9139-4.5975 8.971-6.9781 0 0 0.1143 0.060395 0.93764 0.050476 7.6191-4.576 15.238-9.152 23.373-13.964 0.35986-0.11478 0.71974-0.22955 1.8089-0.3682 3.2223-2.1121 6.4446-4.2242 10.065-6.4769 0 0 0.40266-0.1282 1.1549-0.1756 4.1321-2.5779 8.2642-5.1558 12.962-7.9482 0.38422-0.12112 0.76843-0.24222 1.8578-0.39795 2.5594-1.7505 5.1188-3.501 7.7718-5.7481 0.009338-0.16821 0.018677-0.33643 0.57385-0.64194 0.34262-0.15158 0.68524-0.30313 1.6656-0.3555 0.42944-0.001129 0.85889-0.002259 1.85-0.17401 0.58365-0.49326 1.1673-0.98654 2.1151-1.6228 0 0 0.37228-0.12051 0.92545-0.29892 0.56613-0.49939 1.1323-0.99875 2.119-1.6341 0 0 0.4248-0.12222 0.96268-0.30203 0.54895-0.49484 1.0979-0.98968 2.2188-1.6807 0.38712-0.11194 0.77426-0.22388 1.7068-0.49704 0.56067-0.49231 1.1214-0.98462 2.2065-1.7173 0.51675-0.25577 1.0335-0.51157 2.0507-0.95633 0.44113-0.30109 0.88226-0.60217 1.7072-1.0856 0 0 0.40039-0.14236 1.1335-0.20804 3.2264-2.0489 6.4528-4.0977 10.259-6.5019 1.387-0.7576 2.774-1.5152 4.8604-2.3551 1.7998-1.1951 3.5995-2.3901 5.8723-3.7511 0.15952-0.049683 0.319-0.099365 0.99301-0.30887 0.51273-0.47713 1.0254-0.95427 2.1389-1.6593 0.40674-0.13426 0.81345-0.26852 1.8929-0.44568 1.5164-1.1081 3.0329-2.2162 5.1359-3.5581 0.39703-0.13954 0.79407-0.27907 1.8654-0.45029 1.5244-1.1182 3.0488-2.2365 5.1321-3.576 0.38101-0.12398 0.76202-0.24797 1.7631-0.42424 0.92023-0.72055 1.8405-1.4411 3.3443-2.4775 0.99402-0.4791 1.988-0.95819 3.7057-1.4635 1.814-1.2778 3.6281-2.5556 5.9172-4.1011 0.50455-0.20604 1.0091-0.41208 2.15-0.69873 0.8309-0.59305 1.6618-1.1861 2.8978-1.8961 0 0 0.41104-0.093964 0.966-0.27281 0.56287-0.50867 1.1257-1.0173 2.0736-1.6557 0 0 0.39221-0.10618 0.96265-0.27744 0.59085-0.50499 1.1817-1.01 2.303-1.7016 0.35968-0.10545 0.71939-0.21091 1.6275-0.47743 0.5618-0.49149 1.1236-0.98299 2.2465-1.6641 0.38208-0.098953 0.76416-0.19791 1.7805-0.35921 0.92767-0.76419 1.8553-1.5284 2.7819-2.3109 0 0 0.017701 0.005768 0.60715-0.1403m-58.339 211.4c0.57538-0.088593 1.1508-0.17722 2.3255-0.59824 1.1371-2.5379 2.2742-5.0758 4.0953-7.9471 9.9657-4.3105 15.886-2.3292 20.668 6.5816 0.71054 1.3237 2.6635 1.9806 4.0417 2.946 0.76312-1.6538 2.3458-3.4302 2.1205-4.9361-0.48438-3.2371-1.9036-6.3337-2.934-9.4898-3.2038-9.8135-6.2919-19.668-9.7205-29.402-0.55511-1.576-2.599-3.6317-3.9881-3.6574-1.7618-0.032654-3.6973 1.6081-5.281 2.8737-0.80792 0.64563-1.1163 2.0143-1.4709 3.1141-3.6773 11.407-7.4243 22.793-10.856 34.274-0.52045 1.7413 0.47308 3.9351 0.75726 5.953 0 0 0.02478 0.006257 0.2413 0.28818m88.335 0.19308c6.7548 0.073425 13.51 0.14682 20.532-0.046692 0.18146-0.17169 0.35556-0.3505 0.93668-0.8367-0.85742-1.085-1.5699-2.9069-2.6008-3.1097-2.5748-0.50629-5.2957-0.2406-7.9552-0.35074-5.8625-0.2428-7.3632-1.6305-7.5089-7.5349-0.15195-6.1543-0.010071-12.316-0.026611-18.474-0.010254-3.8268 0.19134-7.6852-0.2569-11.464-0.16531-1.3936-1.9213-2.5984-2.9518-3.8894-1.1347 1.2392-2.3485 2.4184-3.36 3.7511-0.34253 0.45129-0.23062 1.2909-0.22986 1.9529 0.013153 11.151-0.10068 22.306 0.19867 33.45 0.053405 1.9887 1.8329 3.931 2.7581 5.9771 0 0-0.070282 0.071717 0.4649 0.57437m-40.665-44.534s-0.045502-9.16e-4 -0.60178 0.45151c-0.72528 1.9737-2.0885 3.9532-2.0707 5.9203 0.10339 11.444 0.3165 22.9 1.0663 34.314 0.12109 1.8434 2.9888 4.8239 4.8077 5.0002 6.4142 0.62158 12.93 0.39002 19.393 0.1337 1.2006-0.047608 2.3371-1.7088 3.5032-2.6253-1.2038-0.96018-2.3067-2.5401-3.6317-2.756-3.0875-0.50281-6.281-0.40271-9.433-0.44876-4.684-0.068451-7.002-2.2696-6.9621-7.069 0.069061-8.3029 0.11261-16.611-0.11481-24.909-0.064789-2.3643-1.1031-4.702-1.7977-7.4768 0 0-0.10065-0.42645-0.44205-0.87842-1.2241 0.11725-2.4482 0.23447-3.7167 0.3428m-137.3 22.611c-1.7641-0.88705-3.4759-1.9055-5.3037-2.6323-3.2332-1.2858-6.7897-1.9755-9.7126-3.74-1.6481-0.9949-3.1208-3.6239-3.1539-5.543-0.028641-1.6596 1.7199-4.0131 3.3252-4.9099 4.335-2.4215 10.667-0.67575 13.665 3.2787 1.5673 2.067 3.1033 3.7462 5.5341 1.0094 0 0-0.011643-0.035614 0.43747-0.4588 0.14015-1.5668 0.85992-3.3728 0.32774-4.6621-3.8855-9.4129-12.294-6.6124-19.426-6.6835-5.8048-0.057953-9.8147 3.4103-10.873 8.4025-0.10307 0.48608-0.15285 0.98483-0.20575 1.48-1.0342 9.6776 2.9957 14.503 13.299 17.051 4.0504 1.002 7.7897 3.262 11.573 5.7329-1.2223 8.0527-5.107 10.768-12.808 8.3791-2.1832-0.67722-3.829-2.9375-5.9119-4.1422-1.2706-0.73483-3.0612-1.3852-4.3177-1.025-0.75731 0.21713-1.4205 2.4949-1.291 3.7612 0.46294 4.5244 4.0715 7.7823 8.7309 8.0203 3.4895 0.17828 6.9966 0.15732 10.491 0.060242 9.7994-0.27212 14.69-8.9971 10.016-18.682-0.11401-0.44534-0.22801-0.89066-0.55589-1.8821-1.1227-0.76871-2.2454-1.5374-3.8395-2.8154m-71.489-1.6078c0.025284 2.0119 0.050568 4.0238-0.2467 6.7628 0.047485 3.4449-0.3107 6.9552 0.2328 10.32 0.93059 5.7608 3.6689 7.8334 9.6162 7.9869 3.6605 0.094482 7.3286 0.097412 10.988-0.020538 5.8544-0.18875 9.1006-2.396 9.5424-8.1013 0.89778-11.593 1.142-23.242 1.4377-34.874 0.070176-2.7607-1.0909-5.9344-4.4506-5.2464-1.6572 0.33942-3.1555 3.1939-3.998 5.2138-0.65483 1.5699-0.20184 3.6099-0.20799 5.441-0.026825 7.9924-0.056854 15.985-0.054779 23.977 0.00119 4.5892-2.3276 6.6126-6.8333 6.6226-5.8994 0.013183-8.9683-2.6843-9.1034-8.7659-0.20328-9.1538 0.029236-18.321-0.35374-27.464-0.068741-1.6411-2.2149-3.1953-3.4019-4.7896-1.3059 1.4199-3.6813 2.804-3.7301 4.2659-0.19806 5.9252 0.31911 11.874 0.56334 18.671m122.93 10.088c-0.01529-5.3208-0.10492-10.643-0.028931-15.962 0.12357-8.6485 2.8728-11.247 11.35-9.819 2.3712 0.39938 4.3548 2.9437 6.5832 4.4019 1.4968 0.9794 3.1112 1.7789 4.673 2.6589 0.91525-1.6307 2.911-3.5962 2.5302-4.8252-0.90997-2.936-2.28-6.636-4.6446-8.0406-6.4634-3.8396-13.852-3.2164-20.756-1.1177-4.393 1.3355-6.8203 5.0038-6.7568 10.011 0.11597 9.1443-0.044708 18.292 0.089813 27.436 0.088593 6.0217 3.4351 9.6562 9.4533 10.06 4.7996 0.32211 9.6466 0.27206 14.455 0.033051 4.8311-0.2402 8.1152-3.4513 8.2459-8.2897 0.050018-1.8505-1.3665-3.7406-2.1148-5.6127-1.6875 0.94022-4.0577 1.4623-4.9368 2.8976-2.8407 4.638-7.0584 4.5122-11.422 3.9889-3.9743-0.4765-6.1571-2.98-6.7212-7.8201m-22.285-19.466c-0.029998-2.4958 0.31999-5.0765-0.21309-7.4598-0.40881-1.8277-1.9317-3.4062-2.9592-5.0955-1.3759 1.5889-3.3817 2.9772-3.9678 4.8176-0.72655 2.2812-0.32233 4.9368-0.32677 7.4309-0.01271 7.1317-0.12831 14.268 0.090637 21.393 0.10101 3.2869 0.74701 6.5834 1.4527 9.8085 0.19788 0.90439 1.6311 2.3045 2.2407 2.1834 1.0647-0.21146 2.4277-1.2552 2.7712-2.257 0.63089-1.8396 0.80577-3.8996 0.82994-5.8719 0.097885-7.9869 0.066101-15.975 0.081649-24.949m187.47 32.758c0.87164-1.3764 2.4545-2.7298 2.4998-4.1329 0.30112-9.3103 0.29086-18.631 0.34253-27.949 0.020325-3.6594 0.089356-7.3309-0.1911-10.972-0.079315-1.0292-1.3152-1.9693-2.0207-2.9503-0.93366 0.84228-2.092 1.5458-2.7263 2.573-0.4646 0.75241-0.32419 1.9308-0.31165 2.9175 0.13773 10.812 0.2179 21.625 0.52371 32.432 0.072815 2.5747 0.9248 5.1275 1.8836 8.0807z" fill="#639"/>
<path d="m274.7 278.47c-0.34262 0.15158-0.68524 0.30313-1.5108 0.45962-1.0527 0.33569-1.6224 0.6665-2.4291 1.1617-0.74545 0.43503-1.2539 0.7056-2.0368 0.92258-3.6706 2.0432-7.0666 4.14-10.481 6.254-0.018768 0.017304-0.068085 0.030396-0.3385 0.11227-0.82233 0.57294-1.3742 1.064-2.211 1.6584-0.66396 0.24472-1.0429 0.38614-1.7867 0.52637-3.4806 1.1797-6.5963 2.3606-10.067 3.4468-1.7077-1.0178-2.9633-2.1616-4.4372-2.8081-1.8746-0.82233-4.3907-2.2916-5.8228-1.6577-7.1492 3.1642-14.463 1.6661-21.692 1.4024-15.95-0.58191-31.885-1.5793-47.836-2.1458-3.5884-0.12744-7.2321 0.70868-10.821 1.2859-10.396 1.6724-20.539 1.6947-29.96-4.5677-0.083596-8.1559-0.10536-15.846 0.26242-23.595 1.8732-0.24152 3.3598-0.60522 4.8401-0.58173 16.876 0.26816 33.769 2.8728 50.606-0.24951 2.1593-0.40039 4.5628-1.5406 6.0464-3.1038 3.1949-3.3664 6.828-3.9534 11.979 0.11356-2.0471 0.79306-3.8872 1.5059-5.7274 2.2188 0.34738 0.79938 0.69475 1.5988 1.0421 2.3981 6.0521 0 12.135 0.37402 18.146-0.12164 4.581-0.37775 8.3874 0.20337 12.053 3.1976 4.2633 3.4822 8.3338 2.8912 10.928-1.6068 1.2486-2.1648 1.2658-5.0398 2.0313-8.4398 2.4891-0.94783 5.4834-1.882 7.2854 3.0469 0.54097 1.4797 2.8075 2.5642 4.508 3.334 3.3057 1.4964 6.825 2.5165 10.154 3.9667 3.6445 1.5873 6.4523 1.7324 8.8999-2.2675 0.93234-1.5236 4.5972-3.2225 5.4723-2.6154 3.8882 2.6976 7.0086 0.74936 10.732-0.096069 5.1564-1.1708 9.6977-2.8242 13.369-6.7124 0.65002-0.68846 1.896-0.81418 2.8668-1.1998-0.67795 2.4122-2.0033 3.9968-3.3824 5.5331-2 2.2281-2.0985 4.0875 0.69516 5.6748-3.0342 1.9554-5.9354 3.5074-8.592 5.4024-4.3459 3.1-8.5325 6.4233-12.786 9.6524z" fill="#3CBBB2"/>
<path d="m123.33 284.98c9.3591 5.7971 19.502 5.7748 29.898 4.1024 3.5885-0.57721 7.2321-1.4133 10.821-1.2859 15.95 0.56653 31.886 1.5639 47.836 2.1458 7.2294 0.26373 14.543 1.7618 21.692-1.4024 1.4322-0.63385 3.9482 0.83539 5.8228 1.6577 1.4739 0.64648 2.7295 1.7903 4.1959 3.056-2.8028 2.7783-5.7192 5.2139-8.8963 7.8141-1.0079 0.50262-1.7553 0.84073-2.853 1.2289-2.1725 1.2719-3.9948 2.4937-6.019 3.7854-0.20192 0.069885-0.61205 0.19009-0.88586 0.26697-0.83801 0.55524-1.4022 1.0336-2.2514 1.606-0.67001 0.20322-1.055 0.31244-1.7136 0.49658-0.8295 0.56458-1.3853 1.0542-2.1404 1.6201-0.19916 0.076264-0.60562 0.2056-0.88336 0.28516-0.84473 0.57413-1.4117 1.0687-2.246 1.7448-0.98718 0.9704-1.7071 1.7592-2.427 2.5481 1.6e-5 0-0.11429-0.060395-0.57056 0.005767-3.8826 1.7237-7.2716 3.4644-10.743 5.0208-6.6336 2.974-13.055 7.0783-20.02 8.5404-29.337 6.1583-55.826-13.303-59.438-43.152 0.45734-0.044373 0.64035-0.064758 0.82337-0.085144m23.36 24.564c1.7341-0.66556 3.4682-1.3311 5.2023-1.9966-0.8313-2.1304-1.1486-4.8461-2.6742-6.1859-1.0204-0.89609-3.7581 0.1633-5.7273 0.34766 0.26985 1.939 0.40956 3.9105 0.87994 5.7996 0.16545 0.66449 1.1413 1.1272 2.3193 2.0352m45.433-14.989c0.34422 0.22885 0.68845 0.4577 1.0327 0.68655 0.095535-0.37491 0.19107-0.74979 0.28661-1.1247-0.41209 0.042023-0.82419 0.084046-1.3193 0.43814z" fill="#3DB4B4"/>
<path d="m122.24 285.09c3.8867 29.825 30.375 49.286 59.713 43.128 6.9655-1.4621 13.387-5.5665 20.02-8.5404 3.4716-1.5564 6.8606-3.2971 10.684-4.9939-2.542 2.2875-5.2933 4.9168-8.4559 6.885-10.018 6.234-20.566 10.56-32.798 10.407-29.628-0.37146-53.021-23.288-53.13-53.013-0.16892-45.971-0.057213-91.943-0.062248-137.91-0.002838-25.984-0.17758-51.969 0.057075-77.951 0.17244-19.094 8.0822-34.418 23.941-45.307 1.756-1.2057 5.0636-2.546 6.1528-1.7564 1.5583 1.1297 2.3587 4.155 2.3972 6.3895 0.2119 12.322-0.097626 24.654 0.20496 36.972 0.091049 3.706 1.0261 7.6224 2.5466 11.006 2.0454 4.5511 6.1919 6.4432 11.202 5.4726 4.6508-0.90104 8.0209-3.5621 8.6189-8.4734 0.58138-4.7745 0.82501-9.6125 0.86804-14.426 0.10271-11.492-0.15057-22.989 0.10728-34.475 0.051377-2.2886 1.7399-4.5404 2.9388-6.4404 0.12207 15.324 0.053711 30.28-0.21642 45.233-0.068527 3.794-0.38589 7.6717-1.2761 11.344-1.8877 7.7876-10.126 11.823-17.651 8.9822-6.9725-2.6325-9.1743-8.3463-9.2545-15.089-0.14629-12.304-0.020233-24.611-0.032547-36.916-0.001663-1.6585 0.074784-3.3655-0.2767-4.9639-0.53941-2.4529-1.9199-3.0036-4.0284-0.99313-0.18489 0.086048-0.5307 0.30239-0.8156 0.37615-0.85306 0.58947-1.4212 1.1052-2.173 1.6962-0.18364 0.075279-0.53395 0.26188-0.86038 0.3531-13.784 10.36-19.668 24.295-19.667 40.874 0.003578 71.429 0.087746 142.86 0.20663 214.29 0.004356 2.6164 0.67693 5.2317 1.0381 7.8475z" fill="#4B5A83"/>
<path d="m256.83 229.81c6.643-6.9654 14.35-13.207 17.523-22.72 1.4995-4.4963 2.6738-9.3512 2.6975-14.05 0.19904-39.466 0.038666-78.934 0.19366-118.4 0.012665-3.2223 1.5583-6.4386 2.3916-9.6576 3.0333 0.98383 6.1983 1.6856 9.0661 3.0241 3.4563 1.6132 6.5679 3.9543 9.9948 5.6433 5.2924 2.6085 7.2906 6.7715 7.2524 12.525-0.13144 19.792-0.09018 39.586-0.058106 59.379 0.004822 2.9888 0.051789 6.0193 0.53036 8.9571 1.0594 6.5025 5.4323 9.8707 11.908 9.5282 5.8596-0.30989 10.325-4.4435 10.579-10.573 0.32986-7.9807 0.1611-15.983 0.17688-23.975 0.019684-9.9919-0.090912-19.985 0.048218-29.975 0.085052-6.1074 1.9991-7.2018 7.4244-4.2684 5.7064 3.0855 11.253 6.4662 16.883 9.6939 4.3287 2.4816 5.324 6.4564 5.2586 11.072-0.29456 20.804-0.60541 41.608-0.70151 62.413-0.024536 5.3112-0.031708 11.378 5.9718 13.684 3.4475 1.3242 7.6624 0.6505 11.777 1.2039 0.18323 0.7048 0.12125 1.0819-0.32947 1.5363-12.942 2.7458-19.161-2.2068-19.636-15.123-0.083527-2.2723-0.63144-4.5276-0.95297-7.2309-0.18558-4.7916-0.383-9.1431-0.48157-13.887 0.053009-1.7321 0.007172-3.0718 0.098542-4.7936 0.089477-2.8239 0.041748-5.2656 0.10098-8.1725 0.17694-10.503 0.24695-20.541 0.41211-30.97-0.7031-2.2932-1.5013-4.1949-2.3442-6.1628-0.044677-0.066254-0.19626-0.11678-0.31805-0.37545-0.91388-0.76919-1.7059-1.2797-2.7763-1.9164-0.65674-0.27721-1.0351-0.42819-1.5955-0.83992-1.3257-0.7866-2.4695-1.3125-3.7911-2.0203-0.57425-0.50018-0.97079-0.81834-1.5612-1.318-0.68741-0.35571-1.181-0.52993-1.8941-0.81477-0.2196-0.11063-0.65671-0.33599-0.8656-0.56412-0.95831-0.52966-1.7077-0.83118-2.6554-1.2591-0.19827-0.12643-0.62543-0.32316-0.81491-0.55026-2.0119-0.99282-4.4728-3.7957-4.5463 1.5925-0.02066 4.8262-0.007537 9.1876-0.10626 13.941-0.2438 13.366-0.27905 26.343-0.54974 39.314-0.12988 6.2242-3.5612 10.623-8.7331 11.963-6.8394 1.7726-13.428-0.034943-16.236-5.4564-1.5946-3.0782-2.1425-6.9931-2.171-10.539-0.1593-19.802-0.018127-39.607 0.024689-59.41 0.024811-11.468-1.6655-13.795-12.97-17.625-0.20844-0.09504-0.63754-0.25546-0.83194-0.50976-0.96436-0.88335-1.6413-1.7568-2.5229-2.0923-2.0531-0.78122-4.2047-1.3034-6.3164-1.9305-0.51166 2.0111-1.0461 4.0169-1.5181 6.0372-0.11017 0.4716-0.003174 0.9927-0.005157 1.491-0.16699 42.175-0.3349 84.349-0.54822 126.83-0.087921 0.71838-0.1304 1.1299-0.39172 1.7903-0.69412 1.4698-1.1694 2.6906-1.7676 4.2234-0.79443 1.7103-1.4658 3.1086-2.392 4.7234-5.0506 5.7683-9.8463 11.32-14.663 16.882-0.02121 0.009858-0.038849 0.053162-0.35422 0.083451-0.92093 0.19539-1.5265 0.36049-2.327 0.30692-0.32498-0.36444-0.45499-0.51022-0.58499-0.65599z" fill="#4D5383"/>
<path d="m198.69 17.961c4.7776 0.8145 4.7874 4.8078 4.8609 8.1476 0.22333 10.157 0.094451 20.323 0.003372 30.484-0.10747 11.991-0.57704 23.986-0.39861 35.971 0.12917 8.6762 4.1933 12.651 11.6 12.548 7.0604-0.097961 11.275-4.7403 11.325-12.98 0.10231-16.666-0.064987-33.334 0.1154-49.998 0.026306-2.4298 1.3545-4.8455 2.0802-7.2677 2.4251 0.77163 5.0077 1.2364 7.2401 2.3831 3.8437 1.9742 7.2921 4.7788 11.228 6.4978 5.7718 2.5207 7.459 6.6093 7.3985 12.657-0.2518 25.148-0.13618 50.3-0.14824 75.45-0.003342 6.9999 0.057891 14 0.017379 21-0.047424 8.1962-1.3727 8.8765-9.4453 8.5779-28.419-1.051-52.451 8.1307-69.433 31.865-6.7394 9.419-7.2663 20.655-3.9399 31.184 4.1657 13.186 15.319 18.612 28.26 20.539 15.302 2.2776 29.837-0.36786 43.624-7.342 1.3218-0.66861 2.8157-0.99689 4.7479-1.3759 0.51816 0.10722 0.8176 0.4543 0.55711 0.66293-2.11 1.2766-3.86 2.6004-5.8274 3.365-6.1284 2.3817-12.339 4.5516-18.832 6.8486-0.72885 0.12396-1.144 0.2029-1.9907 0.22513-10.41 0.7993-20.269 1.1032-30.116-1.8249-19.839-5.8997-30.068-24.936-22.939-44.349 5.5144-15.016 16.87-24.852 30.752-31.947 6.045-3.0894 12.363-5.6448 18.863-8.4857 0.71278-0.10982 1.1194-0.17665 1.9125-0.1807 2.5201-0.53871 4.6539-1.1402 7.205-1.7616 2.0836-0.12717 3.7499-0.23438 5.8867-0.24442 5.2259 0.29004 9.9817 0.4713 14.736 0.68083 2.27 0.10004 4.0535-0.26694 3.4775-3.6918-0.002243-7.1709-0.025451-13.869 0.050934-20.813 0.035736-1.1085-0.028106-1.9713-0.07402-3.2989 0.038818-6.1925 0.059723-11.92 0.15791-17.819 0.019272-0.66197-0.038727-1.1532-0.085052-2.1143-0.090073-8.5092-0.19179-16.548-0.20215-25.046 0.14612-11.736 0.20088-23.014 0.22226-34.579-0.56897-0.79918-1.1045-1.3107-1.912-2.0262-4.3907-2.7808-8.5097-5.3577-12.763-8.2417-1.2882-1.2321-2.3554-2.3021-3.613-3.0533-3.0022-1.7933-4.9047-0.85506-4.8953 2.6507 0.048996 18.265 0.2128 36.529 0.28784 55.103-0.072235 0.9313-0.095657 1.5542-0.36288 2.4078-3.6264 6.8096-9.4552 9.1556-16.72 9.5122-0.74619-0.1118-1.1738-0.1674-1.8067-0.49056-7.0584-3.8646-9.1372-9.6233-9.0098-17.166 0.35275-20.892 0.29997-41.794 0.13612-62.69-0.026108-3.3303-1.4537-6.6495-2.2333-9.9739z" fill="#4F5585"/>
<path d="m275.02 278.52c3.9349-3.2787 8.1216-6.602 12.467-9.702 2.6566-1.895 5.5578-3.447 8.9011-5.5356 2.8092-1.4124 5.1663-2.2686 7.3076-3.5 14.921-8.5811 29.828-17.188 44.675-25.898 6.4039-3.7569 12.653-7.7778 19.291-11.783 7.6104-4.3424 15.551-7.7874 21.994-13.062 5.4174-4.4351 9.0911-11 13.795-16.881 11.496-20.087 5.2209-47.751-13.582-60.627-1.4851-1.0169-3.705-0.96089-5.6541-1.7845-0.11313-1.1534-0.15549-1.9259 0.10886-2.8079 0.7247-0.22684 1.1426-0.34412 1.9296-0.3083 1.147 0.34875 1.925 0.54438 2.7029 0.74002 9.8199 5.286 14.898 14.531 19.967 24.595 0.35886 2.3835 0.55405 4.035 0.96417 5.6313 4.7095 18.33-0.048218 34.127-12.711 47.838-1.9124 2.0709-3.7575 4.204-5.6338 6.3083 0-1.5e-5 -0.26401 0.037247-0.69321 0.18587-1.062 0.70351-1.6947 1.2584-2.3275 1.8133-3.1e-5 -1.5e-5 -0.2771 0.026581-0.70624 0.17552-1.0574 0.69084-1.6856 1.2328-2.3139 1.7747-0.35635 0.054764-0.71274 0.10953-1.5857 0.33429-1.0643 0.64616-1.612 1.1223-2.1597 1.5985 0-1.5e-5 -0.45654 0.13979-0.94397 0.32062-1.0594 0.6669-1.6313 1.153-2.2032 1.6391-0.3494 0.11188-0.69876 0.22376-1.5806 0.51201-1.1298 0.63713-1.727 1.0979-2.3243 1.5586 0 1.6e-5 -0.38422 0.12576-0.84439 0.30423-1.0479 0.67528-1.6357 1.1721-2.2234 1.6688-0.35532 0.11781-0.71066 0.23564-1.6253 0.51187-1.3694 0.72931-2.1796 1.3002-2.9897 1.8711 0-1.5e-5 -0.017701-0.005783-0.3121 0.087006-1.2368 0.82199-2.1793 1.5512-3.1217 2.2804-0.38208 0.098938-0.76416 0.19789-1.6898 0.49402-1.1128 0.6741-1.6821 1.151-2.2514 1.628-0.35968 0.10544-0.71939 0.21089-1.619 0.51407-1.1378 0.69019-1.7357 1.1827-2.3336 1.6751 0-1.5e-5 -0.39221 0.10617-0.8493 0.2791-1.0285 0.66916-1.6 1.1654-2.1715 1.6617 0 0-0.41104 0.093964-0.91492 0.22337-1.346 0.70204-2.1881 1.2747-3.0302 1.8473-0.50455 0.20604-1.0091 0.41208-2.0803 0.85724-2.4025 1.4555-4.2383 2.6719-6.0742 3.8882-0.99402 0.47911-1.988 0.95821-3.5642 1.6578-1.5155 0.91676-2.4489 1.613-3.3822 2.3093-0.38098 0.12401-0.76199 0.248-1.7375 0.56984-2.1337 1.2685-3.6728 2.3392-5.2118 3.4099-0.39703 0.13954-0.79407 0.27907-1.7986 0.61211-2.1387 1.2648-3.6699 2.3362-5.2011 3.4075-0.40674 0.13426-0.81345 0.26852-1.7614 0.61853-1.0649 0.67828-1.5886 1.1408-2.1122 1.6034-0.15952 0.049683-0.319 0.099365-1.0376 0.31108-2.3769 1.3318-4.1947 2.5016-6.0126 3.6714-1.387 0.75757-2.774 1.5151-4.786 2.512-3.8723 2.2689-7.1196 4.2986-10.367 6.3283 0 0-0.40039 0.14236-0.84668 0.32104-0.88464 0.4844-1.323 0.79016-1.7614 1.0959-0.51678 0.25577-1.0335 0.51157-2.0764 0.98944-1.0927 0.7002-1.6592 1.1783-2.2258 1.6564-0.38712 0.11194-0.77426 0.22388-1.7063 0.53577-1.1005 0.6868-1.6561 1.1737-2.2117 1.6605 0 0-0.4248 0.12222-0.90106 0.29117-1.0495 0.66046-1.6227 1.152-2.196 1.6436 3e-5 0-0.37225 0.12051-0.82611 0.2916-1.0435 0.65485-1.6332 1.1386-2.2229 1.6224-0.42944 0.001129-0.85889 0.002259-1.6072-0.046234z" fill="#4A9294"/>
<path d="m271.12 424.44c0.52841 4.4036 2.7112 6.9071 6.6855 7.3836 4.3635 0.52325 8.5812 0.64905 11.422-3.9889 0.87912-1.4353 3.2493-1.9574 4.9368-2.8976 0.74826 1.8721 2.1648 3.7622 2.1148 5.6127-0.13074 4.8384-3.4148 8.0495-8.2459 8.2897-4.8084 0.23901-9.6554 0.28906-14.455-0.033051-6.0182-0.4039-9.3647-4.0385-9.4533-10.06-0.13452-9.1438 0.026154-18.292-0.089813-27.436-0.063507-5.007 2.3638-8.6752 6.7568-10.011 6.9036-2.0988 14.292-2.7219 20.756 1.1177 2.3646 1.4047 3.7346 5.1046 4.6446 8.0406 0.38086 1.229-1.6149 3.1945-2.5302 4.8252-1.5618-0.88-3.1762-1.6795-4.673-2.6589-2.2284-1.4581-4.212-4.0025-6.5832-4.4019-8.4776-1.4277-11.227 1.1705-11.35 9.819-0.075989 5.3195 0.013641 10.641 0.064545 16.399m16.168-28.4c1.7944 1.5917 3.5888 3.1834 6.1884 5.4893 0.164-5.6148-2.2545-7.7822-7.3193-8.7085-3.741 0.030426-7.482 0.060852-11.973 0.082306-5.4612 0.93845-7.8796 4.5724-7.9493 9.7182-0.10916 8.0547 0.13428 16.114 0.17444 24.954 0.15057 4.8972 2.3433 8.5479 7.3224 9.1935 4.3953 0.56995 8.9515 0.44019 13.383 0.034668 4.3166-0.39496 5.8843-3.0267 5.1147-7.281-7.1906 8.8264-19.33 7.5709-23.989-3.4146 0.26794-6.9727 0.68838-13.944 0.75028-20.918 0.041351-4.6565 1.5936-8.0652 7.0118-9.7735 3.6452 0.042939 7.2905 0.085877 11.286 0.62433z" fill="#4B4589"/>
<path d="m148.16 413.06c-0.2533-5.9403-0.77046-11.889-0.5724-17.815 0.048874-1.4619 2.4243-2.846 3.7301-4.2659 1.187 1.5943 3.3332 3.1485 3.4019 4.7896 0.38298 9.1433 0.15047 18.31 0.35374 27.464 0.13506 6.0816 3.204 8.7791 9.1034 8.7659 4.5058-0.010041 6.8345-2.0334 6.8333-6.6226-0.002075-7.9924 0.027954-15.985 0.054779-23.977 0.006149-1.8311-0.44684-3.8711 0.20799-5.441 0.8425-2.0199 2.3407-4.8744 3.998-5.2138 3.3597-0.68805 4.5208 2.4857 4.4506 5.2464-0.29561 11.632-0.53987 23.28-1.4377 34.874-0.44179 5.7052-3.688 7.9125-9.5424 8.1013-3.6595 0.11795-7.3276 0.11502-10.988 0.020538-5.9473-0.15353-8.6856-2.2262-9.6162-7.9869-0.5435-3.3647-0.18532-6.8751 0.051697-10.368 0.84091 1.4281 1.3973 2.9039 1.9514 4.7841 0.68811 8.3573 2.6125 11.046 8.3449 12.067 9.2915 1.6544 14.426-0.27896 17.514-6.8954 0.7152-11.261 1.3156-22.15 1.6819-33.046 0.0392-1.1661-1.2874-2.3782-1.9803-3.569-0.81906 1.2178-2.1763 2.3656-2.3459 3.668-0.3605 2.7694-0.15167 5.6203-0.090515 8.4359 0.17267 7.9493 0.38861 15.898 0.37517 24.115-3.8659 4.2163-10.426 5.6156-15.625 3.6876-5.1649-1.9154-5.2776-6.2014-5.2177-10.636 0.013367-0.9892-0.10652-1.9802-0.12222-3.4549 1.1179-18.869 0.7668-23.102-2.7033-25.961-0.37086 2.4206-0.79401 4.4175-0.96172 6.4356-0.35399 4.26-0.57433 8.531-0.84949 12.798z" fill="#4E3E87"/>
<path d="m223.7 418.89c0.11401 0.44534 0.22801 0.89066 0.24817 1.9402-1.6352 1.1495-3.1765 1.6947-4.7177 2.2399-3.8809-1.6871-7.6202-3.9471-11.671-4.9491-10.303-2.5489-14.333-7.3738-13.299-17.051 0.052902-0.49518 0.10268-0.99393 0.20575-1.48 1.0585-4.9922 5.0684-8.4604 10.873-8.4025 7.1322 0.071167 15.541-2.7293 19.426 6.6835 0.53218 1.2892-0.18759 3.0953-0.59749 4.4987-0.71469-4.6123-2.8752-7.7826-7.6077-9.4105-4.8349-0.001495-9.2039 0.02417-13.898 0.16107-5.7385 2.6663-6.7134 7.3296-6.1166 12.619 0.40102 3.5544 1.6949 6.5568 6.0698 7.568-5.2766-9.7713-5.025-12.407 1.8796-17.851 3.7926-0.017396 7.1307 0.012054 10.707 0.24798 3.0798 2.5634 5.9216 4.9204 8.7635 7.2774-2.3954 2.7469-3.9313 1.0677-5.4987-0.99933-2.9985-3.9545-9.3305-5.7002-13.665-3.2787-1.6054 0.89673-3.3539 3.2503-3.3252 4.9099 0.033111 1.9191 1.5058 4.5481 3.1539 5.543 2.9229 1.7645 6.4794 2.4542 9.7126 3.74 1.8278 0.72684 3.5396 1.7453 5.7116 3.1276 1.4871 1.2856 2.5663 2.0759 3.6455 2.8661z" fill="#43578A"/>
<path d="m309.04 436.94c-0.29324-1.9845-1.2868-4.1783-0.76633-5.9196 3.4313-11.481 7.1782-22.867 10.856-34.274 0.35455-1.0998 0.66293-2.4685 1.4709-3.1141 1.5837-1.2656 3.5192-2.9064 5.281-2.8737 1.3892 0.025757 3.433 2.0814 3.9881 3.6574 3.4286 9.7342 6.5167 19.588 9.7205 29.402 1.0303 3.1561 2.4496 6.2527 2.934 9.4898 0.22531 1.5059-1.3573 3.2823-2.1205 4.9361-1.3781-0.96542-3.3311-1.6223-4.0417-2.946-4.7828-8.9108-10.703-10.892-21.013-6.7368-0.34573-0.79648-0.34723-1.4378-0.016114-2.2994 7.0719-2.7654 13.778-2.0207 20.557 0.17816 0.45721 0.42859 0.82861 0.66248 1.2 0.89639 0.19284-0.57492 0.38565-1.1498 0.52032-2.0271-0.55902-1.6322-1.0599-2.962-1.5867-4.6943-2.232-6.5379-4.4379-12.673-6.6911-19.186-0.21094-1.338-0.068665-2.5457-0.60272-3.2074-1.0891-1.3496-2.6464-3.4296-3.8186-3.3108-1.3289 0.13461-2.5525 2.2696-3.6057 3.6947-0.42401 0.57376-0.2739 1.5718-0.61395 2.6398-2.0922 6.3873-3.9554 12.511-5.9741 18.961-0.68884 2.2275-1.2223 4.1298-1.9421 6.3243-1.3693 3.6649-2.5521 7.0376-3.735 10.41z" fill="#4B4589"/>
<path d="m248.8 405.04c-0.015808 8.481 0.015976 16.469-0.081909 24.456-0.02417 1.9723-0.19905 4.0323-0.82994 5.8719-0.34357 1.0017-1.7065 2.0455-2.7712 2.257-0.6096 0.12109-2.0428-1.2791-2.2407-2.1834-0.70567-3.225-1.3517-6.5216-1.4527-9.8085-0.21895-7.1254-0.10335-14.261-0.090637-21.393 0.004441-2.4941-0.39978-5.1498 0.32677-7.4309 0.58618-1.8405 2.5919-3.2288 3.9679-4.8176 1.0274 1.6893 2.5503 3.2678 2.9592 5.0955 0.53308 2.3833 0.18309 4.964 0.21335 7.9529z" fill="#4A638F"/>
<path d="m397.2 436.79c-0.98251-1.9637-2.762-3.906-2.8154-5.8947-0.29935-11.144-0.18552-22.299-0.19867-33.45-7.63e-4 -0.66205-0.11267-1.5016 0.22986-1.9529 1.0115-1.3327 2.2254-2.5119 3.36-3.7511 1.0305 1.291 2.7865 2.4958 2.9518 3.8894 0.44824 3.7784 0.24664 7.6368 0.2569 11.464 0.01654 6.1581-0.12534 12.319 0.026611 18.474 0.14578 5.9044 1.6465 7.2921 7.5089 7.5349 2.6595 0.11014 5.3804-0.15555 7.9552 0.35074 1.0309 0.20276 1.7434 2.0247 2.1831 2.9983-6.8329-0.68658-13.245-1.3182-19.67-1.7364-0.54883-0.035706-1.1901 1.3493-1.7884 2.0744z" fill="#445987"/>
<path d="m144.69 19.573c1.9235-1.9244 3.304-1.3737 3.8434 1.0792 0.35149 1.5984 0.27504 3.3054 0.2767 4.9639 0.012314 12.306-0.11374 24.613 0.032547 36.916 0.08017 6.7428 2.282 12.457 9.2545 15.089 7.5248 2.841 15.763-1.1946 17.651-8.9822 0.89023-3.6727 1.2076-7.5504 1.2761-11.344 0.27013-14.953 0.33849-29.909 0.58498-45.285 0.35408-0.48634 0.60313-0.55754 1.1981-0.62632 0.68802-0.038292 1.0283-0.085228 1.3686-0.13216 1.0369 0.15569 2.0737 0.31138 3.4539 0.87439 0.36826 0.65898 0.39317 0.91064 0.43367 1.3968 0.015594 0.23452 0.016555 0.70513-0.36822 0.66387-1.1573-0.083567-1.9298-0.12587-2.9565-0.042309-0.72897 0.69259-1.2038 1.2593-1.7037 2.2961-0.009399 11.174 0.006165 21.878-0.008545 33.046-0.042099 5.8197-0.053894 11.175-0.10547 16.83-0.063614 0.70201-0.087448 1.1043-0.28473 1.8105-1.3695 2.784-2.5656 5.2642-4.0547 7.9013-2.3834 1.3991-4.4738 2.6413-6.9583 3.9103-4.1327-0.25511-7.8712-0.53713-11.948-0.92915-7.3816-2.6896-8.2924-8.7296-8.7302-15.436-0.03064-1.7869-0.084931-3.1608-0.10635-5.0049 0.070862-11.85 0.10887-23.23 0.11594-34.973-0.77534-1.5832-1.5197-2.8026-2.2641-4.0219z" fill="#49AB90"/>
<path d="m361.2 393.88c0.59189 2.3499 1.6302 4.6875 1.6949 7.0518 0.22742 8.298 0.18387 16.606 0.11481 24.909-0.039948 4.7994 2.2781 7.0005 6.9621 7.069 3.152 0.046051 6.3456-0.054047 9.433 0.44876 1.325 0.21582 2.4279 1.7958 3.6317 2.756-1.1661 0.9165-2.3027 2.5777-3.5033 2.6253-6.4634 0.25632-12.979 0.48788-19.393-0.1337-1.8189-0.1763-4.6866-3.1569-4.8077-5.0002-0.74982-11.414-0.96292-22.87-1.0663-34.314-0.017761-1.967 1.3455-3.9465 2.3607-5.6699 0.33108 11.116 0.27481 21.984 0.48563 32.847 0.049225 2.5376 1.0043 5.0577 1.7153 7.9431 6.1971 5.2236 12.715 2.0898 19.022 2.3646 0.04007-0.46475 0.08017-0.9295 0.12027-1.3943-5.339-0.45145-10.678-0.90286-16.139-1.7524-0.2916-13.515-0.46143-26.632-0.63123-39.749z" fill="#503C88"/>
<path d="m118.72 418.96c-0.5175 1.9069-0.74689 3.9562-1.6065 5.6938-2.5837 5.2229-7.2255 5.3835-10.326 0.42026-2.1375-3.4213-4.1034-6.9498-6.146-10.43-0.55984 0.12485-1.1197 0.24972-1.6795 0.37457-0.35837 1.786-0.95095 3.562-1.028 5.3601-0.1781 4.159 0.23824 8.3732-0.29248 12.474-0.23871 1.8443-2.1667 3.47-3.3282 5.1949-1.0379-1.6843-2.8523-3.3156-2.9715-5.0625-0.3962-5.8058-0.1903-11.653-0.20148-17.485-0.012146-6.3314-0.18472-12.669 0.043541-18.992 0.18137-5.0243 2.4323-6.1035 7.4922-3.6618 0.22651 0.26172 0.19061 0.29965-0.066742 0.3089-0.42866 0.025513-0.59998 0.041809-1.1537 0.052582-3.1058-0.15182-4.1698 1.1963-3.9756 3.8355 0.15385 2.0903 0.16246 4.1913 0.1332 6.7901-0.92772 10.547-0.6898 20.551-0.31769 30.549 0.90766-0.002655 1.8153-0.00528 2.723-0.007935 0-9.972 0-19.944 0.27804-30.031 1.7005 0.6947 3.3368 1.2793 4.4883 2.3739 1.2827 1.2192 2.1244 2.9024 3.1801 4.7764 0.57923 2.4393 0.76175 4.6991 1.7779 6.4843 1.6957 2.9792 3.9247 5.6548 5.9292 8.4583 2.0909-2.5179 4.1818-5.0358 6.4663-7.5312 0.1936 0.022522 0.58196 0.055725 0.58196 0.055725z" fill="#3D447C"/>
<path d="m198.48 17.871c0.98607 3.4142 2.4136 6.7335 2.4397 10.064 0.16385 20.896 0.21663 41.797-0.13612 62.69-0.12735 7.5431 1.9514 13.302 8.7213 17.26-6.9696-0.91154-10.615-5.2971-11.243-13.491-0.060867-4.0827-0.10573-7.7204-0.13359-11.831 0.28101-9.4982 0.545-18.523 0.83192-28.017 0.042221-8.5776 0.19597-16.689 0.045837-24.794-0.17703-9.5582-2.8512-12.382-12.648-14.195-0.24902-0.85907-0.41598-1.4303-0.16316-2.1061 0.9886-0.22273 1.5574-0.34088 2.1262-0.45902 0.25478 0.074361 0.51463 0.1192 1.2386 0.41342 1.8801 0.77311 3.3011 1.2673 4.7222 1.7615 0 0 0.090423 0.047086 0.30402 0.31075 0.96326 0.73453 1.7129 1.2054 2.4626 1.6763 0.40811 0.20926 0.81621 0.41853 1.4308 0.71767z" fill="#49AB90"/>
<path d="m219.18 423.46c1.59-0.9371 3.1313-1.4823 4.8305-2.293 4.7042 8.7415-0.18655 17.466-9.9859 17.739-3.4947 0.097077-7.0018 0.11804-10.491-0.060242-4.6593-0.23801-8.2679-3.4959-8.7309-8.0203-0.12956-1.2663 0.53366-3.5441 1.291-3.7612 1.2565-0.3602 3.0471 0.29013 4.3177 1.025 2.0829 1.2046 3.7288 3.4649 5.9119 4.1422 7.7012 2.3889 11.586-0.32645 12.857-8.771m-5.644 11.578h-9.4475c0.019058 0.49411 0.038101 0.98825 0.057144 1.4824h11.628c0.03508-0.26718 0.070176-0.53436 0.10527-0.80158-0.55406-0.20975-1.1081-0.41952-2.3427-0.68079z" fill="#4B5390"/>
<path d="m436.04 437.1c-0.7262-2.7581-1.5782-5.3108-1.651-7.8855-0.30582-10.807-0.38599-21.621-0.52371-32.432-0.012542-0.98672-0.15295-2.1651 0.31165-2.9175 0.63428-1.0272 1.7926-1.7307 2.7263-2.573 0.70544 0.98096 1.9414 1.9211 2.0207 2.9503 0.28046 3.6407 0.21143 7.3122 0.1911 10.972-0.051666 9.3177-0.041412 18.639-0.34253 27.949-0.04538 1.4031-1.6282 2.7565-2.7325 3.9377z" fill="#3B688C"/>
<path d="m117.94 418.88c-2.0909 2.5179-4.1818 5.0358-6.2727 7.5537-2.0045-2.8034-4.2335-5.4791-5.9292-8.4583-1.0161-1.7853-1.1987-4.0451-1.5068-6.5121 0.42965-0.43503 0.61027-0.44949 1.0629-0.46722 0.45342-0.006409 0.63477-0.009522 0.81612-0.012665 0.011314 0.39267 0.022629 0.78534 0.15223 1.7414 0.65558 1.131 1.1929 1.6986 1.7302 2.2663 2.0913 2.3052 3.9788 1.7857 5.6265-0.49307 1.144-1.5822 2.1576-3.2587 3.7047-5.1949 0.884-0.30817 1.2928-0.31451 2.01-0.4501 2.1133-1.6928 3.9181-3.2564 7.0789-5.9949 0.33673 4.6234 0.57638 7.9138 0.52272 11.18-0.67612-0.051941-1.059-0.079651-1.4418-0.10736-0.15764-0.8237-0.31528-1.6474-0.65673-2.9861-0.70689-0.44687-1.23-0.37872-1.7531-0.31061-0.59825 0.62662-1.1965 1.2532-2.2692 2.3199-1.2746 2.2687-2.0747 4.0973-2.8749 5.9259z" fill="#405585"/>
<path d="m358.66 434.05c-0.5383-2.5281-1.4934-5.0482-1.5426-7.5858-0.21082-10.863-0.15454-21.73-0.20749-33.073-0.011841-0.47656 0.033661-0.47565 0.45654-0.45938 1.4937 0.041809 2.5644 0.067353 3.6352 0.092926 0-3e-5 0.10065 0.42642 0.15204 0.63889 0.22119 13.329 0.39102 26.446 0.27396 39.953-1.1138 0.40418-1.9407 0.41876-2.7677 0.43335z" fill="#465D89"/>
<path d="m391.9 211.67c1.5174-2.0312 3.3624-4.1643 5.2749-6.2352 12.662-13.712 17.42-29.508 12.711-47.838-0.41013-1.5963-0.60532-3.2478-0.87329-5.2968 1.4717 2.8512 3.456 5.9973 4.269 9.4216 3.8759 16.325-4.9998 39.078-18.775 48.831-0.6633 0.46965-1.4947 0.70195-2.6066 1.118z" fill="#514E88"/>
<path d="m127.23 414.07c-0.23965-3.2904-0.47929-6.5808-0.81602-11.204-3.1608 2.7384-4.9656 4.3021-7.0761 5.6222-0.33035-0.98804-0.35503-1.7327-0.37972-2.4773 0 0 0.016724-0.024353 0.21969-0.13837 0.42353-0.77386 0.6441-1.4337 0.86467-2.0935 0.41388-1.2762 0.82774-2.5525 1.5545-4.3198 0.66327-0.92084 1.0137-1.3506 1.3641-1.7804 0 0 0.35948-0.14877 0.78892 0.11365 1.727 1.8336 3.0245 3.4048 4.9149 5.694 0.35893-3.9511 0.6216-6.8426 1.1581-9.6863 0.64099 0.11066 1.0081 0.17355 1.3752 0.23645 0.13124 4.6215 0.26248 9.2429 0.21033 14.544-0.063309 2.3376 0.056763 3.9954 0.17685 5.6531-0.003952 1.2632-0.007888 2.5263-0.2052 4.4477-0.78503 2.7133-1.297 4.797-2.0171 6.806-0.21509 0.60016-1.0123 0.9917-1.5129 1.0526-0.18243-3.1538-0.39475-5.8815-0.62037-8.9951-0.00882-1.4156-0.004364-2.4453 9.1e-5 -3.475z" fill="#377192"/>
<path d="m385.88 126.47c-0.41794 0.11728-0.83588 0.23457-1.8415 0.70614-1.0466 1.5702-1.9065 2.7869-1.9042 4.002 0.031067 16.772 0.18066 33.543 0.30237 50.688-0.87598 2.6086-1.7531 4.8435-2.6303 7.0784 0.065796-18.747 0.11362-37.494 0.22208-56.24 0.012359-2.1388-0.037171-4.4192 0.66153-6.3771 0.87033-2.4391 2.5979-4.1114 5.1346-0.70065 0.09198 0.4662 0.055451 0.84333 0.055451 0.84333z" fill="#513981"/>
<path d="m150.14 425.02c-0.55643-1.4758-1.1129-2.9516-1.7925-4.7432-0.1485-2.3278-0.17378-4.3396-0.19453-6.7798 0.27969-4.6948 0.50003-8.9658 0.85402-13.226 0.16771-2.0181 0.59085-4.015 0.96172-6.4356 3.4701 2.8583 3.8212 7.0918 2.5018 26.147-0.93976 2.1264-1.6351 3.5821-2.3305 5.0377z" fill="#416490"/>
<path d="m127.82 426.96c0.5305-0.48709 1.3277-0.87863 1.5428-1.4788 0.72006-2.009 1.232-4.0927 2.0259-6.4271 0.23398 4.7062 0.5139 9.7098 0.1512 14.667-0.11359 1.5524-1.9581 2.9781-3.0104 4.4619-1.1018-1.464-2.7004-2.7854-3.1726-4.4302-0.52429-1.8262-0.020936-3.9474 0.37735-6.3788 0.92346-0.4303 1.5046-0.42188 2.0856-0.41345z" fill="#464F8A"/>
<path d="m397.17 436.84c0.62698-0.76624 1.2682-2.1513 1.8171-2.1156 6.4254 0.41815 12.837 1.0498 19.463 1.8865 0.043793 0.44745-0.13031 0.62625-0.90424 0.96875-7.2198-0.095032-13.847-0.3609-20.475-0.62677 0 0 0.070282-0.071717 0.098969-0.11292z" fill="#5668A8"/>
<path d="m225.22 306.28s0.41013-0.12021 0.94856-0.25854c2.3699-1.3479 4.2014-2.5574 6.0328-3.767 0.74736-0.3381 1.4947-0.67621 2.8359-1.1661 1.0385-0.15738 1.4831-0.163 1.9277-0.16864-7.6191 4.576-15.238 9.152-23.269 13.733 0.30823-0.7839 1.0281-1.5728 2.2822-2.6393 1.1084-0.7612 1.6826-1.2448 2.2568-1.7283 0 0 0.40646-0.12933 0.86754-0.30249 1.0248-0.64816 1.5884-1.1232 2.1521-1.5982 0.38495-0.10922 0.7699-0.21844 1.705-0.50845 1.1202-0.65256 1.6902-1.1243 2.2601-1.5961z" fill="#4B5A83"/>
<path d="m237.22 300.8c-0.70239 0.12372-1.147 0.12933-1.9249 0.12219 2.5832-2.4484 5.4997-4.884 8.6575-7.5675 3.357-1.4288 6.4728-2.6097 9.7654-3.5543-1.2032 1.4603-2.5833 2.6843-3.9633 3.9082 0 0-0.40266 0.1282-0.94615 0.27734-3.7794 2.2167-7.0153 4.2842-10.251 6.3517-0.35988 0.11475-0.71976 0.22952-1.3374 0.46237z" fill="#4A9294"/>
<path d="m379.61 189.19c1.073-2.4743 1.9502-4.7092 3.0505-7.4148 0.66742-0.66998 1.1117-0.8692 1.6716-0.65883 0.61841 6.9102-2.3645 11.367-8.1391 14.112-0.13095-0.15065-0.39246-0.45227-0.39246-0.45227 0.062012-0.37709 0.12399-0.75417 0.24667-1.412 1.1628-1.4988 2.2649-2.7168 3.5628-4.1742z" fill="#4A9294"/>
<path d="m315 426.48c0.001496 0.64127 0.002991 1.2826 0.006653 2.2457-1.1349 2.8597-2.2719 5.3976-4.0328 8.0991-1.0552 0.15994-1.4867 0.15634-1.9182 0.15277 0 0-0.02478-0.006257-0.020233-0.022919 1.1874-3.3894 2.3702-6.7621 4.0805-10.398 0.97964-0.20093 1.4319-0.13904 1.8841-0.077118z" fill="#514E88"/>
<path d="m129.55 393.75c-0.26268 2.8915-0.52534 5.783-0.88428 9.734-1.8904-2.2892-3.188-3.8604-4.7231-5.7261-0.11312-1.0664 0.011322-1.8383 0.47144-3.0161 1.9357-0.60126 3.5358-0.79657 5.1359-0.99188z" fill="#459AB1"/>
<path d="m250.13 293.68c1.0039-1.2003 2.384-2.4242 3.952-3.8834 0.56691-0.37656 0.94588-0.51797 1.8767-0.85056 1.1061-0.67822 1.6603-1.1653 2.2146-1.6524 0 0 0.049317-0.013092 0.40778-0.076294 1.6794-0.47369 3.0004-0.88422 4.3214-1.2948-4.1321 2.5779-8.2642 5.1558-12.772 7.7574z" fill="#4B5A83"/>
<path d="m263.19 285.82c-1.6039 0.51782-2.9249 0.92834-4.5855 1.3848 3.0563-2.0509 6.4524-4.1476 9.9351-5.9378-1.2469 1.5652-2.5804 2.8238-3.9139 4.0824-0.38422 0.12112-0.76843 0.24222-1.4356 0.47061z" fill="#4A9294"/>
<path d="m127.85 426.54c-0.61098 0.41776-1.1921 0.40933-2.055 0.39108-0.31232-2.6664-0.34278-5.3229-0.045609-8.442 0.71627-0.49448 1.1049-0.52631 1.4936-0.55817 0.21233 2.7276 0.42466 5.4553 0.60708 8.6091z" fill="#405585"/>
<path d="m106.16 410.68c-0.22868 0.30853-0.41003 0.31165-0.94092-0.050049-1.7319-4.7151-3.1142-9.0654-4.2334-13.462 0.43892-0.075104 0.61467-0.1041 0.79042-0.13309 1.4771 4.4465 2.9542 8.893 4.3839 13.645z" fill="#464F8A"/>
<path d="m238.92 300.32c2.8713-2.0555 6.1072-4.123 9.6873-6.2694-2.8781 2.0333-6.1004 4.1454-9.6873 6.2694z" fill="#4B5A83"/>
<path d="m397.34 437.2c6.3597 0.014527 12.987 0.2804 20.073 0.50891-6.2961-0.11078-13.051-0.18417-20.073-0.50891z" fill="#445987"/>
<path d="m248.19 236.24c2.5646-2.1721 5.2797-4.1713 8.3173-6.2962 0.45248 0.02002 0.58249 0.1658 0.68591 0.76782-2.8688 2.3203-5.711 4.1843-8.5533 6.0483 0 0-0.29944-0.34708-0.44995-0.51991z" fill="#4D5383"/>
<path d="m293.97 268.42c2.8807-1.9969 6.1281-4.0266 9.7106-6.1179-2.8912 1.9873-6.1176 4.0362-9.7106 6.1179z" fill="#4B5A83"/>
<path d="m129.82 393.8c-1.8739 0.14758-3.474 0.3429-5.4235 0.64075 2.393-4.0514 3.6853-4.2433 6.7982-0.68155-0.36658 0.21436-0.7337 0.15146-1.3747 0.040802z" fill="#464F8A"/>
<path d="m264.98 285.33c0.98096-1.2413 2.3145-2.4999 3.8359-4.0115 0.69635-0.52359 1.2048-0.79416 2.2839-1.1988 1.0175-0.10883 1.4643-0.083619 1.911-0.058442-2.5594 1.7505-5.1189 3.5009-8.0309 5.2687z" fill="#4B5A83"/>
<path d="m118.13 418.91c0.60654-1.8511 1.4067-3.6797 2.4726-5.6992-0.31123 1.5976-0.88825 3.386-1.6779 5.4648-0.21268 0.29022-0.60104 0.25702-0.79463 0.2345z" fill="#464F8A"/>
<path d="m340.94 241.43c1.474-1.2033 3.3098-2.4196 5.4748-3.7413-1.4849 1.1726-3.299 2.4504-5.4748 3.7413z" fill="#4B5A83"/>
<path d="m309.1 259.57c1.4682-1.1286 3.2861-2.2984 5.4265-3.5472-1.4773 1.1159-3.277 2.311-5.4265 3.5472z" fill="#4B5A83"/>
<path d="m320.01 253.39c1.1948-1.0499 2.726-2.1212 4.5715-3.2692-1.2022 1.0315-2.7186 2.1396-4.5715 3.2692z" fill="#4B5A83"/>
<path d="m327.02 249.38c1.2019-1.0548 2.741-2.1255 4.5952-3.2833-1.2093 1.031-2.7337 2.1493-4.5952 3.2833z" fill="#4B5A83"/>
<path d="m131.65 413.78c-0.18922-1.2054-0.3093-2.8632-0.24797-4.7619 0.22665 1.2759 0.27188 2.7928 0.24797 4.7619z" fill="#464F8A"/>
<path d="m223.59 418.62c-0.9723-0.51724-2.0515-1.3075-3.3029-2.3385 0.95058 0.52802 2.0733 1.2968 3.3029 2.3385z" fill="#4B5390"/>
<path d="m360.83 392.8c-0.90012 0.20044-1.9709 0.1749-3.4424 0.13754 0.82342-0.12906 2.0475-0.24628 3.4424-0.13754z" fill="#503C88"/>
<path d="m101.7 396.73c-0.10471 0.34106-0.28046 0.37006-0.97158 0.39886-0.68623-0.021485-0.8571-0.042847-1.1387-0.30695-0.32119-0.73318-0.53159-1.2236-0.72902-2.0403 0.008178-0.76059 0.003379-1.1949-0.00142-1.6292 8e-6 0 0.035904-0.037933 0.053833-0.056335 0.91725 1.095 1.8166 2.2084 2.7869 3.6338z" fill="#3D447C"/>
<path d="m127.23 417.54c-0.37536 0.41785-0.764 0.44968-1.4353 0.50146-0.33578-1.0823-0.38891-2.1845-0.37087-3.6974 0.45399-0.38303 0.83682-0.35532 1.513-0.30338 0.28884 1.054 0.28439 2.0836 0.29321 3.4993z" fill="#464F8A"/>
<path d="m363.91 228.35c0.62534-0.69803 1.5678-1.4272 2.8051-2.2401-0.63272 0.68054-1.5604 1.4447-2.8051 2.2401z" fill="#4B5A83"/>
<path d="m333.94 245.39c0.62332-0.67014 1.5567-1.3664 2.7804-2.1252-0.62991 0.65799-1.5501 1.3785-2.7804 2.1252z" fill="#4B5A83"/>
<path d="m118.72 406.19c0.26079 0.55939 0.28548 1.304 0.30731 2.4213-0.41161 0.37903-0.82037 0.38538-1.5324 0.39331 0.1275-0.87537 0.55823-1.7524 1.225-2.8146z" fill="#464F8A"/>
<path d="m349.05 236.66c0.52396-0.5323 1.3661-1.1049 2.5095-1.7485-0.52957 0.52211-1.3604 1.1151-2.5095 1.7485z" fill="#4B5A83"/>
<path d="m193.99 14.921c-1.1296-0.24867-2.5507-0.74289-4.2328-1.5235 1.1398 0.23505 2.5406 0.7565 4.2328 1.5235z" fill="#4B5A83"/>
<path d="m367.32 225.94c0.51541-0.49786 1.3256-1.0688 2.431-1.7025-0.51523 0.50127-1.3257 1.0654-2.431 1.7025z" fill="#4B5A83"/>
<path d="m276.91 278.48c0.30887-0.39847 0.89856-0.88223 1.76-1.4656-0.31189 0.39371-0.89554 0.88699-1.76 1.4656z" fill="#4B5A83"/>
<path d="m107.85 414.74c-0.39362-0.31186-0.93091-0.87952-1.6036-1.7163 0.39636 0.3074 0.92816 0.88394 1.6036 1.7163z" fill="#464F8A"/>
<path d="m123.38 410.66c0.22996-0.092285 0.75304-0.16043 1.3694-0.12305-0.29656 0.11945-0.68643 0.13333-1.3694 0.12305z" fill="#464F8A"/>
<path d="m196.87 16.864c-0.575-0.1814-1.3247-0.65226-2.2487-1.4193 0.5751 0.17915 1.3246 0.6545 2.2487 1.4193z" fill="#4B5A83"/>
<path d="m187.98 12.801c-0.22839 0.30866-0.79718 0.4268-2.0706 0.58814-1.0898-0.005005-1.475-0.053203-1.8602-0.1014-0.024902-0.25166-0.04982-0.50332-0.10507-1.1346 1.2116-0.10062 2.4536 0.17836 4.0359 0.64786z" fill="#4B5A83"/>
<path d="m119.87 404.03c-0.045158 0.40457-0.26572 1.0644-0.67463 1.8403 0.040848-0.45099 0.27004-1.018 0.67463-1.8403z" fill="#405585"/>
<path d="m309.16 437.12c0.32327-0.13739 0.75476-0.13379 1.5104-0.12753-0.25131 0.091278-0.82672 0.1799-1.5104 0.12753z" fill="#4B4589"/>
<path d="m283.04 274.63c0.28668-0.39694 0.84225-0.88382 1.6568-1.4726-0.28995 0.39298-0.8389 0.88782-1.6568 1.4726z" fill="#4B5A83"/>
<path d="m286.96 272.44c0.29385-0.39752 0.86041-0.87561 1.6909-1.4556-0.29678 0.39038-0.85748 0.88269-1.6909 1.4556z" fill="#4B5A83"/>
<path d="m316.06 255.55c0.26642-0.38264 0.7901-0.84518 1.5546-1.4095-0.27188 0.37534-0.78458 0.85248-1.5546 1.4095z" fill="#4B5A83"/>
<path d="m279.95 276.56c0.29666-0.40231 0.8699-0.89386 1.7091-1.4863-0.30023 0.39841-0.86639 0.89777-1.7091 1.4863z" fill="#4B5A83"/>
<path d="m352.95 234.54c0.29398-0.40681 0.86545-0.90306 1.7015-1.5074-0.29831 0.4006-0.86114 0.90927-1.7015 1.5074z" fill="#4B5A83"/>
<path d="m355.98 232.6c0.31268-0.40685 0.91058-0.89932 1.7831-1.4962-0.31619 0.40057-0.90704 0.90556-1.7831 1.4962z" fill="#4B5A83"/>
<path d="m273.05 279.81c-0.49353 0.22318-0.94031 0.19797-1.7208 0.14233 0.23602-0.36121 0.80572-0.69202 1.5855-0.95908 0.20071 0.23196 0.19138 0.40018 0.13528 0.81674z" fill="#4A9294"/>
<path d="m359.92 230.42c0.29514-0.39641 0.86444-0.87335 1.6967-1.4527-0.29886 0.38913-0.86069 0.88063-1.6967 1.4527z" fill="#4B5A83"/>
<path d="m371.92 223.53c0.30853-0.39951 0.8963-0.89629 1.7564-1.4967-0.31079 0.39738-0.89401 0.89841-1.7564 1.4967z" fill="#4B5A83"/>
<path d="m374.98 221.57c0.31992-0.37984 0.91718-0.84058 1.7868-1.388-0.32159 0.37791-0.91553 0.84248-1.7868 1.388z" fill="#4B5A83"/>
<path d="m378.89 219.5c0.29489-0.39853 0.86679-0.88461 1.7011-1.4718-0.29974 0.394-0.86191 0.88914-1.7011 1.4718z" fill="#4B5A83"/>
<path d="m382.02 217.54c0.28232-0.39162 0.83002-0.86778 1.6324-1.4453-0.28586 0.38605-0.82642 0.87335-1.6324 1.4453z" fill="#4B5A83"/>
<path d="m385.8 215.59c0.32761-0.43681 0.95587-0.97873 1.8807-1.6272-0.32895 0.43632-0.95447 0.97922-1.8807 1.6272z" fill="#514E88"/>
<path d="m388.82 213.63c0.33069-0.44379 0.96344-0.99867 1.8995-1.6582-0.33029 0.44594-0.9639 0.99654-1.8995 1.6582z" fill="#514E88"/>
<path d="m122.76 397.72c-0.15553 0.38648-0.50593 0.81622-1.0723 1.4152 0.1485-0.34451 0.51297-0.85818 1.0723-1.4152z" fill="#464F8A"/>
<path d="m386.25 126.63c-0.36902-0.1531-0.33249-0.53023-0.30637-0.71964 0.85205 0.20009 1.6779 0.58958 2.7566 1.2194-0.52524 0.04464-1.3032-0.15099-2.4502-0.49974z" fill="#45607A"/>
<path d="m291.24 269.78c0.18814-0.2113 0.6265-0.51706 1.3192-0.91028-0.18674 0.21359-0.62787 0.51468-1.3192 0.91028z" fill="#4B5A83"/>
<path d="m179.84 11.23c-0.004441 0.067374-0.34471 0.11431-0.84628 0.09064 0.062622-0.084096 0.28653-0.097586 0.84628-0.09064z" fill="#4B5A83"/>
<path d="m367.34 222.2c-6.3194 3.901-12.568 7.9218-18.972 11.679-14.846 8.7098-29.753 17.317-44.675 25.898-2.1413 1.2314-4.4984 2.0876-7.0648 3.2507-3.3456-1.2048-3.2471-3.0643-1.2471-5.2923 1.3791-1.5363 2.7044-3.1209 3.3824-5.5331-0.9708 0.38559-2.2168 0.51131-2.8668 1.1998-3.6712 3.8883-8.2126 5.5416-13.369 6.7124-3.7231 0.84543-6.8435 2.7936-10.732 0.096069-0.87506-0.60712-4.5399 1.0918-5.4723 2.6154-2.4477 3.9999-5.2554 3.8548-8.8999 2.2675-3.3294-1.4502-6.8487-2.4702-10.154-3.9667-1.7005-0.76978-3.967-1.8543-4.508-3.334-1.802-4.9289-4.7963-3.9948-7.2854-3.0469-0.76546 3.4-0.78275 6.275-2.0313 8.4398-2.5942 4.498-6.6646 5.0891-10.928 1.6068-3.6659-2.9943-7.4724-3.5754-12.053-3.1976-6.0112 0.49567-12.094 0.12164-18.146 0.12164-0.34738-0.79938-0.69475-1.5988-1.0421-2.3981 1.8401-0.71286 3.6803-1.4257 5.7274-2.2188-5.1509-4.067-8.7839-3.4799-11.979-0.11356-1.4836 1.5632-3.8871 2.7034-6.0464 3.1038-16.837 3.1223-33.731 0.51767-50.606 0.24951-1.4804-0.023498-2.9669 0.34021-4.87 0.11554-0.39206-11.42-0.3647-22.432-0.038269-33.312 2.2308 1.6541 4.0761 3.3065 6.12 4.6586 1.8346 1.2135 3.8351 2.8522 5.8536 2.9926 7.9032 0.54987 15.852 0.42059 23.763 0.89436 2.6308 0.15756 5.4721 0.89983 7.7247 2.217 2.6936 1.575 4.5114 1.7665 6.4319-0.84946 12.679 12.036 27.944 13.974 44.067 12.659 1.6289-0.13293 3.1589-1.4761 4.7349-2.2576 0.41512-0.078934 0.83023-0.15787 1.8981-0.15826 2.1187 0.080856 3.7872 0.54785 5.018 0.011047 8.9001-3.8815 17.785-7.8174 26.493-12.104 1.8742-0.92261 3.0103-3.3445 4.4865-5.0757 0 0 0.017639-0.043304 0.38504-0.12068 6.384-1.8328 9.8893-6.5511 13.793-11.092 4.4139 0.090805 8.1264 0.49518 10.621 4.6447 0.79126 1.3163 3.3617 1.921 5.2128 2.1841 11.47 1.6297 22.957 3.1462 34.463 4.499 2.0037 0.2356 4.8169 0.2583 6.0558-0.90222 4.0026-3.7493 8.8177-4.3181 13.795-4.9411 2.9609-0.37064 6.3596-0.31016 8.718-1.7889 4.907-3.0768 9.4449-2.3031 14.244-0.41229m-145.78 31.241c-1.7711 0.78268-3.5421 1.5654-5.3132 2.3481 0.95264 0.62552 1.9907 1.8687 2.8406 1.7511 1.9142-0.26486 4.8154-0.384 2.4726-4.0992m75.922-15.428c-0.46677 0.076737-0.93353 0.15346-1.4003 0.23019 0.13821 0.2307 0.36466 0.67422 0.40103 0.65916 0.36557-0.15147 0.69992-0.37822 0.99927-0.88936z" fill="#3EBFAE"/>
<path d="m123.17 227.01c-0.027359 11.012-0.054718 22.024-0.052215 33.502 0.051636 8.1568 0.073402 15.847 0.157 24.003-0.12119 0.48572-0.3042 0.5061-0.76154 0.55048-0.63548-2.5919-1.3081-5.2072-1.3124-7.8235-0.11888-71.429-0.20305-142.86-0.20663-214.29-8.32e-4 -16.58 5.8827-30.514 19.555-40.555-0.44211 1.1777-0.97224 2.2533-1.7747 3.0571-11.494 11.513-16.476 25.349-14.955 42.004-0.26689 7.8305-0.51916 15.196-0.79518 23.027 0.019074 11.814 0.06189 23.162 0.07486 34.975-0.015953 5.1653-0.002045 9.8655-0.010407 15.032 0.004685 16.149 0.031616 31.831 0.028122 47.968-0.002792 13.151 0.024849 25.849 0.05249 38.546z" fill="#49AB90"/>
<path d="m257.9 287.38c-0.28381 0.40521-0.83804 0.89227-1.6592 1.4672 0.285-0.40317 0.83685-0.89426 1.6592-1.4672z" fill="#4A9294"/>
<path d="m146.41 309.37c-0.89189-0.73148-1.8678-1.1942-2.0332-1.8587-0.47038-1.8891-0.61009-3.8606-0.87994-5.7996 1.9692-0.18436 4.7069-1.2437 5.7273-0.34766 1.5256 1.3398 1.8429 4.0555 2.6742 6.1859-1.7341 0.66553-3.4682 1.3311-5.4884 1.82z" fill="#3CBBB2"/>
<path d="m231.85 302.3c-1.4812 1.1595-3.3126 2.369-5.4806 3.6471 1.4858-1.1534 3.308-2.3752 5.4806-3.6471z" fill="#4A9294"/>
<path d="m192.17 294.4c0.45358-0.19806 0.86568-0.24008 1.2778-0.2821-0.095535 0.37491-0.19107 0.74979-0.28661 1.1247-0.34422-0.22885-0.68845-0.4577-0.99116-0.84259z" fill="#3CBBB2"/>
<path d="m224.94 306.35c-0.29617 0.3949-0.86615 0.86667-1.7013 1.4252 0.29907-0.3916 0.86325-0.87 1.7013-1.4252z" fill="#4A9294"/>
<path d="m220.98 308.46c-0.29001 0.40009-0.85368 0.87509-1.6793 1.447 0.29393-0.39276 0.84978-0.88242 1.6793-1.447z" fill="#4A9294"/>
<path d="m217.96 310.36c-0.29646 0.40396-0.87067 0.88751-1.7118 1.4672 0.30008-0.39844 0.86707-0.89304 1.7118-1.4672z" fill="#4A9294"/>
<path d="m123.83 67c-1.5361-16.19 3.4462-30.026 14.94-41.539 0.80241-0.80376 1.3326-1.8794 2.1011-3.1483 0.11177-0.31974 0.46208-0.50634 1.0137-0.53193 1.0454-0.012519 1.5392 5.55e-4 2.2522 0.24305 1.0956 0.79783 1.972 1.3662 2.8484 1.9347-0.038009 11.38-0.076019 22.759-0.35753 34.771-0.71094 1.1798-1.1784 1.7272-1.9246 2.4712-1.0072 1.2594-1.9201 2.2406-2.4332 3.3988-2.6856 6.0627-6.4143 7.5566-12.57 4.913-1.9558-0.83996-3.9136-1.6754-5.8704-2.5129z" fill="#43DE98"/>
<path d="m146.96 23.595c-0.84547-0.20461-1.7219-0.77302-2.8005-1.8744-0.19454-0.94169-0.18689-1.3504-0.17923-1.7591 0 0 0.34581-0.21634 0.5307-0.30239 0.92929 1.1333 1.6737 2.3527 2.449 3.9359z" fill="#42D69E"/>
<path d="m143.69 20.035c0.27725 0.33493 0.26961 0.74363 0.24498 1.4559-0.51077 0.2905-1.0046 0.27743-1.8663 0.21467 0.20018-0.56539 0.76833-1.0811 1.6214-1.6706z" fill="#49AB90"/>
<path d="m367.66 222.1c-5.1173-1.7862-9.6552-2.5599-14.562 0.51691-2.3583 1.4787-5.7571 1.4182-8.718 1.7889-4.9776 0.62305-9.7927 1.1918-13.795 4.9411-1.2389 1.1605-4.0521 1.1378-6.0558 0.90222-11.505-1.3528-22.993-2.8692-34.463-4.499-1.8511-0.26303-4.4215-0.86772-5.2128-2.1841-2.4944-4.1495-6.2069-4.5539-10.529-4.9433 0.074615-2.1387 0.38101-3.8893 0.68744-5.6398 0.67139-1.3983 1.3428-2.7966 2.4018-4.636 1.1385-1.074 1.8894-1.7069 2.9866-2.4332 1.6632-1.6479 3.6829-3.008 4.1758-4.7904 2.1937-7.9332 5.507-10.082 13.434-8.7165 7.0327 1.2113 14.125 2.2234 21.233 2.7921 3.9331 0.31464 8.6931 0.80147 11.781-1.0074 6.5129-3.8153 12.032-2.0118 17.954 0.53229 3.3224 1.4273 5.8652 0.58737 7.4079-2.7972 4.105 4.4439 9.1299 5.7285 14.756 6.2766 3.8538 3.946 7.2419 2.2406 10.129-0.6183 1.9739-1.9547 3.6783-4.3633 4.8958-6.8647 3.1229-6.4158 8.8569-2.6286 13.323-3.3946 0.91541-0.157 2.4506 3.2995 3.7 5.0903-4.4456 5.6221-8.1194 12.187-13.537 16.622-6.4429 5.2747-14.384 8.7197-21.994 13.062z" fill="#3EC5AB"/>
<path d="m356.13 191.7c-1.2793 3.6114-3.8221 4.4513-7.1445 3.024-5.9219-2.5441-11.441-4.3476-17.954-0.53229-3.088 1.8089-7.848 1.3221-11.781 1.0074-7.1085-0.56868-14.201-1.5808-21.233-2.7921-7.9271-1.3653-11.241 0.78336-13.434 8.7165-0.49286 1.7823-2.5126 3.1425-4.2769 4.533-0.68613-0.66025-0.92484-1.1565-1.1635-1.6528 0.04245-0.41147 0.084931-0.82294 0.41742-1.7905 0.9874-3.7192 2.2324-6.8728 2.2877-10.047 0.2446-14.044 0.14725-28.095 0.42358-41.886 2.4218 3.4146 1.2134 9.1525 7.7068 9.0392 4.1625-0.072648 8.3446 0.97906 12.787 1.6969 11.3 10.736 21.549 9.991 30.293-2.1109 1.4747-1.2488 2.6887-2.312 3.7434-3.5149 3.7077-4.2288 7.7921-4.035 10.459 0.89236 1.7045 3.1488 4.0199 3.4682 6.9915 2.7232 0.19742 4.3515 0.39484 8.703 0.31033 13.503-0.46127 0.46661-0.64056 0.48505-1.039 0.78146-1.9935 4.1748-2.4242 8.003 0.43378 12.033 0.77142 2.3702 1.4723 4.3736 2.1731 6.3769z" fill="#3FCAA7"/>
<path d="m354.35 158.61c-3.0704 1.1375-5.3858 0.81812-7.0903-2.3307-2.6673-4.9274-6.7516-5.1212-10.459-0.89236-1.0547 1.2029-2.2687 2.2661-3.715 3.0438-0.28372-12.443-0.20169-24.537-0.28827-36.629-0.018677-2.6047-0.64566-5.2051-0.99243-7.8075-0.013122-4.3614-0.026245-8.7227 0.46472-13.623 1.7579-0.78963 3.0117-1.0406 4.2654-1.2915 0 0 0.42715 0.19672 0.71063 0.56856 1.1154 0.66184 1.9472 0.95185 2.7791 1.2419 0 0 0.4371 0.22536 0.84894 0.51772 0.90646 0.46642 1.4011 0.64047 1.8957 0.81452 0.39652 0.31814 0.79306 0.6363 1.469 1.4182 1.4767 0.97564 2.674 1.4875 3.8713 1.9993 0.37842 0.15098 0.75681 0.30197 1.5341 0.85033 1.1918 0.89958 1.9846 1.4018 2.7775 1.904 0 0 0.15158 0.050522 0.14194 0.49674 0.76138 2.3556 1.5324 4.265 2.3034 6.1744-0.070038 10.038-0.14004 20.076-0.50226 30.841-0.21243 3.249-0.13266 5.7707-0.052887 8.2924 0.045807 1.3397 0.091644 2.6793 0.038635 4.4115z" fill="#42D1A1"/>
<path d="m290.42 72.379s0.42911 0.16042 0.78131 0.5541c1.8929 1.6078 3.2928 3.0915 5.0015 3.9838 4.5035 2.352 6.1243 5.8781 5.9514 10.914-0.33405 9.7262-0.21704 19.468-0.57797 29.355-1.4143 1.7126-2.8098 3.147-3.6047 4.86-1.6788 3.6177-4.5411 4.693-7.6069 2.7913-2.4358-1.5109-4.252-4.1752-6.0065-6.5737-1.1083-1.5151-1.5975-3.4832-2.3904-5.7171-0.11844-14.344-0.21335-28.219-0.063019-42.42 3.8105 1.0081 6.1629 1.6304 8.5153 2.2527z" fill="#42D69E"/>
<path d="m301.86 117.03c0.069977-9.7353-0.047028-19.477 0.28702-29.203 0.17294-5.036-1.4479-8.5621-5.9514-10.914-1.7087-0.89238-3.1087-2.376-4.7931-3.8888 10.952 3.4363 12.643 5.7634 12.618 17.231-0.042816 19.804-0.18399 39.608-0.024689 59.41 0.028534 3.5461 0.57642 7.461 2.171 10.539 2.8085 5.4214 9.3969 7.2289 16.236 5.4564 5.1718-1.3404 8.6032-5.7391 8.7331-11.963 0.27069-12.971 0.30594-25.948 0.54974-39.314 0.45862 2.2103 1.0856 4.8107 1.1043 7.4154 0.086578 12.093 0.004547 24.186-0.045471 36.751-8.438 12.452-18.687 13.197-30.032 2.0117-0.49347-14.923-0.67297-29.227-0.85248-43.531z" fill="#489E93"/>
<path d="m290.22 72.124c-2.158-0.36803-4.5104-0.99035-8.3209-1.9984-0.15033 14.202-0.05542 28.077 0.037048 42.887 0.026276 12.96 0.052582 24.984 0.078827 37.009-0.026397 14.048 0.070954 28.099-0.17364 42.143-0.055298 3.1743-1.3003 6.3278-2.2422 9.7401-0.076721-41.925 0.091186-84.1 0.25818-126.27 0.001983-0.49829-0.10501-1.0194 0.005157-1.491 0.47205-2.0204 1.0065-4.0261 1.5181-6.0372 2.1117 0.62711 4.2634 1.1493 6.3164 1.9305 0.88165 0.33546 1.5586 1.209 2.5229 2.0923z" fill="#489E93"/>
<path d="m259.74 230.16c-1.1608 1.7009-2.2969 4.1228-4.1711 5.0454-8.7084 4.2868-17.593 8.2227-26.493 12.104-1.2308 0.5368-2.8994 0.069809-4.7043-0.056061 5.8398-2.3756 12.051-4.5455 18.179-6.9272 1.9674-0.76459 3.7174-2.0884 5.8274-3.365 3.1027-2.0727 5.945-3.9367 9.0088-6.0383 0.82709-0.40269 1.4326-0.5678 2.3536-0.76318z" fill="#489E93"/>
<path d="m353.74 173.01c0.17926-0.018448 0.35855-0.036881 0.80792-0.06334 0.60352 2.2551 1.1514 4.5104 1.235 6.7827 0.47476 12.916 6.6946 17.868 19.636 15.123 0.3887-0.077286 0.65021 0.22433 0.54163 0.59846-1.7407 1.0734-3.3728 1.7727-5.005 2.472-5.4347-0.26892-10.46-1.5535-14.565-5.9974-0.96423-2.2301-1.6651-4.2335-2.4144-7.0583-0.11127-4.4999-0.17395-8.1783-0.23666-11.857z" fill="#4A9294"/>
<path d="m274.76 213.2c-0.051605 1.5342-0.358 3.2847-0.75632 5.334-3.6714 4.9295-7.1768 9.6477-13.54 11.471 4.4495-5.4844 9.2453-11.036 14.296-16.805z" fill="#489E93"/>
<path d="m354.44 153.82c-0.21698-2.1395-0.29675-4.6612-0.19128-7.4451 0.233 2.1795 0.28073 4.6212 0.19128 7.4451z" fill="#3FCAA7"/>
<path d="m354.96 114.68c-0.86615-1.5178-1.6372-3.4272-2.3539-5.7166 0.85254 1.5217 1.6508 3.4234 2.3539 5.7166z" fill="#489E93"/>
<path d="m336.34 98.854c-1.0643 0.47805-2.3181 0.729-4.0421 1.0538-0.43066-4.8495 2.0302-2.0466 4.0421-1.0538z" fill="#489E93"/>
<path d="m347.92 105.38c-1.0154-0.25109-2.2127-0.76293-3.5117-1.5565 1.0421 0.24409 2.1859 0.76994 3.5117 1.5565z" fill="#489E93"/>
<path d="m278.92 204.25c0.45755 0.24728 0.69626 0.74356 1.0361 1.4972-0.64978 0.89023-1.4007 1.5232-2.4161 2.2852 0.21066-1.0917 0.68591-2.3125 1.38-3.7823z" fill="#489E93"/>
<path d="m352.3 108.14c-0.67105-0.24352-1.4639-0.74571-2.3774-1.5191 0.67145 0.23936 1.4635 0.74986 2.3774 1.5191z" fill="#489E93"/>
<path d="m339.81 100.66c-0.62296-0.061875-1.4548-0.35188-2.3719-0.88729 0.66418 0.056114 1.4136 0.35764 2.3719 0.88729z" fill="#489E93"/>
<path d="m342.57 102.04c-0.30075 0.007431-0.79538-0.16662-1.4823-0.52242 0.3013-0.007515 0.79486 0.1667 1.4823 0.52242z" fill="#4A9294"/>
<path d="m123.14 188.01c-0.02694-15.683-0.053871-31.365 0.19582-47.299 1.3066 2.1581 1.976 4.8262 3.4684 6.903 1.4806 2.0604 3.7957 5.0276 5.7346 5.0199 20.258-0.079972 40.514-0.63405 60.768-1.1639 5.473-0.14319 10.948-1.0554 16.402-0.89804 9.6374 0.27802 18.981 4.9878 28.913 1.8612 1.2433-0.3914 2.8938 0.51585 4.3568 0.81613 2.8735 0.58984 4.5083-0.42664 4.6453-3.5054 0.44113-9.9145 0.90593-19.828 1.3785-30.13 0.35436-2.1451 0.6918-3.9016 1.4123-5.6763 0.63718-0.046288 0.8913-0.074257 1.1454-0.10222-0.020904 5.7277-0.041809 11.455-0.21716 17.887-0.065979 1.5712 0.022507 2.4382 0.11098 3.3052 0.023194 6.6982 0.046402 13.396-0.38187 20.672-3.7275 0.71713-7.0258 0.66875-10.273 1.0541-2.6919 0.31952-5.3231 1.1502-7.9812 1.7545-1.6662 0.10721-3.3325 0.21442-5.7307 0.22287-2.9136 0.54001-5.0952 1.1788-7.2768 1.8176-0.40668 0.066818-0.81334 0.13365-1.8422 0.14413-14.048 2.6852-25.705 8.9615-35.858 18.007-3.5607 3.1723-6.6059 6.9231-10.356 10.388-4.0495 0.86003-7.6141 1.8148-11.217 2.594-1.8823 0.4071-3.8468 0.7926-5.7474 0.69058-6.2783-0.33696-12.576-0.6559-18.804-1.4607-4.3349-0.56015-8.5681-1.9067-12.847-2.902z" fill="#40CCA6"/>
<path d="m250.04 113.96c-0.33746 1.7565-0.67491 3.5129-1.4178 5.6767-2.1055 0.97945-3.9249 1.3306-5.4808 2.17-3.2002 1.7265-6.2167 3.7901-9.3873 5.5755-4.0777 2.2961-7.7666 1.9282-10.316-2.3165-2.4619-4.0987-6.6719-5.2458-10.394-4.2654-8.4796 2.2336-17.241-0.83112-25.841 2.8227-4.9137 2.0876-11.419 0.37222-17.206 0.4732-15.623 0.2726-31.245 0.60094-46.868 0.90718-0.042816-11.348-0.085632-22.696 0.15392-34.305 4.4183 9.6648 12.58 10.917 22.031 10.404 8.7921-0.47703 17.705-0.81918 26.429 0.088546 9.8322 1.0231 17.653-4.493 26.537-6.3518 0.61183 7.7485 4.257 12.134 11.432 13.313 0.71613-0.038094 1.1438 0.017501 2.1508 0.33668 8.5791 2.5436 15.613-1.9126 16.703-9.9503 0.023422-0.62289 0.046844-1.2458 0.33124-2.3751 0.77405-1.0703 1.2871-1.6341 2.1885-2.1552 2.545 1.6098 4.6167 3.3179 6.8923 4.6871 1.224 0.73651 2.7978 0.89177 4.2137 1.3093 0.097579-1.5835 0.60069-3.2841 0.18604-4.7197-0.47638-1.6492-2.2744-2.9802-2.5414-4.6065-0.21577-1.3144 0.98802-2.8619 1.5621-4.306 1.0737 0.77274 2.2151 1.4691 3.1996 2.3424 0.78809 0.69909 1.3855 1.6132 2.701 3.1922 1.5322-1.9078 2.75-3.4241 3.9678-4.9404 0.10172 8.0393 0.20343 16.079 0.033371 24.768-0.60138 1.1751-0.93097 1.7004-1.2606 2.2256z" fill="#41D59F"/>
<path d="m251.36 86.509c-1.3092 1.9741-2.527 3.4904-4.0591 5.3982-1.3155-1.5791-1.9129-2.4932-2.701-3.1922-0.98447-0.87328-2.1259-1.5696-3.1996-2.3424-0.57407 1.4441-1.7779 2.9916-1.5621 4.306 0.26697 1.6263 2.065 2.9573 2.5414 4.6065 0.41466 1.4355-0.088456 3.1362-0.18604 4.7197-1.416-0.41753-2.9897-0.57279-4.2137-1.3093-2.2756-1.3692-4.3473-3.0773-6.8744-5.1528-0.65112-15.568-0.99733-30.626-1.1845-45.687-0.092285-7.4231 0.12927-7.4977 7.1208-5.8871 4.1189 2.5769 8.2379 5.1538 12.713 8.2016 0.8578 0.99625 1.3594 1.5215 1.8609 2.0468-0.054764 11.278-0.10953 22.556-0.25565 34.292z" fill="#42DA9C"/>
<path d="m172.23 189.11c3.2806-3.4866 6.3259-7.2375 9.8866-10.41 10.153-9.0456 21.81-15.322 35.552-17.964-5.8778 2.8973-12.196 5.4527-18.241 8.5421-13.882 7.0947-25.237 16.931-30.752 31.947-7.1296 19.414 3.0998 38.45 22.939 44.349 9.8465 2.9282 19.705 2.6242 30.116 1.8249-1.1443 0.83823-2.6744 2.1814-4.3033 2.3143-16.123 1.3159-31.387-0.62305-44.251-12.904-1.6273-1.589-2.7989-2.735-4.1478-4.1324-0.76811-0.81764-1.3589-1.384-1.9686-2.3353-3.7543-11.043-3.8833-21.688 0.12535-32.611 0.063462-0.68102 0.096268-1.0696 0.3611-1.6951 1.716-2.4667 3.2-4.6966 4.6839-6.9264z" fill="#489E93"/>
<path d="m236.9 41.661c-6.8571-1.3035-7.0786-1.2289-6.9863 6.1942 0.1872 15.061 0.5334 30.119 0.79614 45.644-0.53096 1.0295-1.044 1.5933-1.7692 2.3552-0.33603-18.067-0.49983-36.331-0.54883-54.596-0.0094-3.5058 1.8931-4.444 4.8953-2.6507 1.2576 0.75118 2.3247 1.8211 3.613 3.0533z" fill="#49AB90"/>
<path d="m233.29 158.61c2.1875-0.70142 4.8187-1.5321 7.5106-1.8517 3.2468-0.38539 6.5452-0.33701 10.252-0.58151 1.0274 2.8471-0.75604 3.214-3.026 3.114-4.7545-0.20953-9.5103-0.39079-14.736-0.68083z" fill="#489E93"/>
<path d="m228.32 98.769c-0.84557 7.807-7.88 12.263-16.141 9.7758 6.6853-0.62016 12.514-2.9662 16.141-9.7758z" fill="#49AB90"/>
<path d="m220.2 160.62c1.7952-0.70154 3.9768-1.3403 6.473-1.8604-1.8191 0.7202-3.9529 1.3217-6.473 1.8604z" fill="#489E93"/>
<path d="m251.56 134.79c-0.18805-0.62131-0.27654-1.4883-0.22848-2.5947 0.20038 0.62338 0.26422 1.4862 0.22848 2.5947z" fill="#489E93"/>
<path d="m251.58 51.929c-0.46816-0.23764-0.96971-0.76292-1.5557-1.5552 0.45116 0.24451 0.98672 0.75604 1.5557 1.5552z" fill="#489E93"/>
<path d="m250.42 113.94c-0.053451-0.50694 0.27614-1.0322 0.86586-1.7374 0.31812 0.31127 0.37611 0.8025 0.35684 1.4645-0.33142 0.19871-0.58554 0.22668-1.2227 0.27296z" fill="#489E93"/>
<path d="m371.14 198.2c1.4404-0.97856 3.0725-1.6779 4.9442-2.6006 5.8832-3.1196 8.8661-7.5761 8.2844-14.935-0.08197-17.419-0.084961-33.98-0.087951-50.541 1.8784 0.44261 4.0983 0.38657 5.5834 1.4035 18.803 12.875 25.078 40.54 13.582 60.627-1.5078-1.5315-3.0429-4.9879-3.9583-4.8309-4.4663 0.76599-10.2-3.0212-13.323 3.3946-1.2175 2.5013-2.9219 4.9099-4.8958 6.8647-2.887 2.8589-6.2751 4.5643-10.129 0.6183z" fill="#41CBA5"/>
<path d="m384.21 129.74c0.073761 16.942 0.076752 33.503 0.043061 50.512-0.48093 0.64822-0.9252 0.84744-1.5938 1.1437-0.34488-16.674-0.49448-33.446-0.52554-50.217-0.002258-1.2151 0.8576-2.4318 1.5975-3.8924 0.32327 0.52772 0.36563 1.3002 0.47876 2.4536z" fill="#45607A"/>
<path d="m275.1 395.42c-4.5173 1.7112-6.0695 5.12-6.1108 9.7765-0.06189 6.9745-0.48233 13.946-1.0543 21.345-0.69372 0.37036-1.0834 0.3147-1.4731 0.25903-0.094085-8.0574-0.33752-16.117-0.22836-24.171 0.069733-5.1458 2.4881-8.7798 8.3474-9.2968 0.43838 0.97699 0.47879 1.5326 0.5192 2.0882z" fill="#457E9F"/>
<path d="m266.44 427.19c0.41663-0.33548 0.8063-0.27982 1.4933-0.18405 4.9704 10.093 17.11 11.349 24.3 2.5224 0.76962 4.2543-0.79816 6.886-5.1147 7.281-4.4317 0.40552-8.9879 0.53528-13.383-0.034668-4.9791-0.64563-7.1719-4.2964-7.2955-9.5847z" fill="#4E6A9E"/>
<path d="m287.09 392.9c4.1287 0.8508 6.5472 3.0182 6.3831 8.633-2.5996-2.3059-4.394-3.8976-6.3323-6.1784-0.11288-1.2776-0.081879-1.8661-0.050843-2.4546z" fill="#457E9F"/>
<path d="m286.63 392.86c0.43704 0.62625 0.40604 1.2148 0.3439 2.2446-3.6764 0.39841-7.3216 0.35547-11.417 0.31104-0.49088-0.5571-0.53128-1.1127-0.5946-2.0852 3.718-0.44736 7.459-0.47778 11.668-0.47046z" fill="#459AB1"/>
<path d="m173.85 429.93c-0.19887-7.9488-0.41481-15.897-0.58748-23.847-0.061157-2.8156-0.26999-5.6665 0.090515-8.4359 0.16954-1.3024 1.5268-2.4502 2.3459-3.668 0.69299 1.1908 2.0195 2.4028 1.9803 3.569-0.36624 10.897-0.96668 21.785-1.9232 32.917-0.91792-0.017944-1.412-0.27676-1.9061-0.53558z" fill="#416490"/>
<path d="m173.64 430.19c0.70639-0.009765 1.2005 0.24905 1.9358 0.63702-2.664 6.3755-7.7991 8.3088-17.091 6.6544-5.7324-1.0207-7.6568-3.7093-8.3449-12.067 0.69774-1.8601 1.3931-3.3157 2.29-4.9576 0.2601 0.80392 0.37999 1.7949 0.36662 2.7841-0.059921 4.4347 0.052811 8.7208 5.2177 10.636 5.1991 1.9281 11.759 0.52875 15.625-3.6876z" fill="#4E6A9E"/>
<path d="m204.04 395.5c-6.4501 5.397-6.7017 8.0328-1.4251 17.804-4.3749-1.0111-5.6688-4.0136-6.0698-7.568-0.59679-5.2895 0.3781-9.9528 6.2176-12.296 0.71022 0.82782 0.99378 1.4439 1.2773 2.0599z" fill="#446E93"/>
<path d="m217.02 392.99c4.2665 1.6007 6.427 4.771 6.9171 9.5949 0.045181 0.37494 0.056824 0.41055 0.039108 0.40555-2.8596-2.362-5.7015-4.719-8.5316-7.4971 0.53294-1.1152 1.0542-1.8093 1.5754-2.5033z" fill="#446E93"/>
<path d="m216.56 392.96c-0.055207 0.72122-0.57642 1.4153-1.3472 2.324-3.5878 0.18527-6.9259 0.15582-10.718 0.17322-0.73801-0.56924-1.0216-1.1853-1.4061-2.1244 4.2679-0.34869 8.6369-0.37436 13.472-0.37286z" fill="#459AB1"/>
<path d="m315.33 426.26c-0.78482 0.15839-1.237 0.096496-2.0303 0.005249 0.19238-1.9317 0.7258-3.834 1.7624-6.0141 1.1926-0.17343 1.882-0.069122 2.8741 0.29358 4.2267 0.62918 8.1508 1.0001 12.456 1.3598 2.1389-0.30374 3.8966-0.59634 5.6544-0.88895 0.50082 1.3298 1.0017 2.6596 1.2498 4.3907-0.66687 0.54657-1.0811 0.69186-1.4953 0.83713-6.6932-2.0042-13.399-2.749-20.471 0.01651z" fill="#4C85B6"/>
<path d="m336.02 420.61c-1.7318 0.6951-3.4895 0.9877-5.4222 1.014 0.051514-2.5836 0.77869-4.9881 0.39319-7.1987-0.66595-3.8192-2.0228-7.5179-2.8469-11.495 0.57257-0.52814 0.90225-0.82883 1.232-1.1295 2.206 6.1355 4.4119 12.271 6.6439 18.809z" fill="#416490"/>
<path d="m317.64 420.29c-0.68942-0.10434-1.3788-0.20865-2.416-0.36035 1.5155-6.1716 3.3788-12.296 5.873-18.612 1.1656-0.097473 1.7003-0.002869 2.132 0.41306-0.78036 2.307-1.4579 4.2928-2.1441 6.5351-0.009949 0.42776-0.01117 0.59891-0.18796 1.0909-1.2027 3.8583-2.2299 7.3958-3.257 10.933z" fill="#416490"/>
<path d="m323.33 401.4c-0.53467-0.094605-1.0693-0.18921-2.0061-0.35483-0.29086-0.87595-0.44098-1.874-0.016968-2.4477 1.0532-1.4251 2.2768-3.5601 3.6057-3.6947 1.1722-0.11874 2.7294 1.9612 3.8186 3.3108 0.53406 0.66177 0.39178 1.8694 0.60275 3.2074-0.28256 0.67819-0.61224 0.97888-1.1896 1.4758-0.24768 0.19623-0.23041 0.13794-0.3743-0.082855-0.67175-0.64783-1.1996-1.0749-2.0685-1.5105-1.0179 0.026459-1.6947 0.061463-2.3716 0.096497z" fill="#377192"/>
<path d="m335.89 426.44c0.32843-0.33994 0.74261-0.48523 1.4677-0.72946 0.11801 0.47598-0.074798 1.0509-0.26764 1.6258-0.3714-0.23392-0.7428-0.4678-1.2-0.89636z" fill="#416490"/>
<path d="m198.26 94.394c-8.8684 2.3038-16.689 7.8198-26.521 6.7968-8.7236-0.90772-17.637-0.56557-26.429-0.088546-9.4513 0.51279-17.613-0.73958-22.008-10.871-0.006348-7.5702 0.24593-14.935 0.51282-22.766 1.9715 0.37224 3.9293 1.2077 5.8851 2.0477 6.1554 2.6436 9.8841 1.1497 12.57-4.913 0.51309-1.1583 1.426-2.1394 2.5281-3.1087 0.95683 0.89381 1.54 1.6941 2.1231 2.4943 0.46143 6.2935 1.3722 12.333 8.8835 15.324 4.5031 6.5759 7.5692 6.6256 12.213 0.60116 2.0903-1.2421 4.1807-2.4843 6.8448-3.7792 5.5398 1.7277 5.8411 2.9105 2.3486 6.6934-0.77437 0.83878-1.5682 1.7131-2.0857 2.7098-0.21364 0.41148 0.10152 1.3816 0.49878 1.7437 0.37277 0.33982 1.5104 0.50366 1.7307 0.24682 2.6665-3.109 5.319-6.243 7.7059-9.564 0.33856-0.47104-0.60657-2.0633-1.2067-2.9721-1.6092-2.4367-3.3535-4.7841-5.0442-7.167 0.02385-0.40229 0.047684-0.80458 0.44711-1.6286 2.6494-0.40242 6.0598-1.3243 6.9942-0.19589 3.4764 4.1982 6.1106 9.0891 9.1263 13.677 0.78899 1.2002 1.8146 2.2449 2.7315 3.3611 0.044876 3.6377 0.089737 7.2755 0.1506 11.358z" fill="#40DA9D"/>
<path d="m186.44 15.844c9.7144 1.5255 12.389 4.3488 12.566 13.907 0.15013 8.1054-0.003616 16.216-0.32394 24.963-0.93951 1.1664-1.6587 1.6232-2.2023 2.2358-2.2189 2.5005-4.2152 5.2875-8.3091 3.9972-4.0133-1.265-6.5299-3.6714-7.2151-7.9917-0.21842-1.3771-1.2415-2.6265-1.8964-3.9343-0.015579-10.704-0.031143-21.408 0.20323-32.741 0.74426-1.1738 1.2385-1.7182 1.7328-2.2627 0.77252 0.042301 1.5451 0.084604 2.8923 0.37717 1.2341 0.64997 1.8935 1.0497 2.5529 1.4494z" fill="#43E097"/>
<path d="m179.03 49.486c0.6852 0.8435 1.7083 2.0929 1.9267 3.47 0.68526 4.3203 3.2018 6.7267 7.2151 7.9917 4.0938 1.2904 6.0901-1.4967 8.3091-3.9972 0.54361-0.61258 1.2628-1.0693 2.1794-1.7667 0.01413 8.856-0.24986 17.881-0.53085 27.379-0.93393-0.64297-1.9595-1.6877-2.7485-2.8879-3.0158-4.5878-5.6499-9.4786-9.1263-13.677-0.93439-1.1284-4.3448-0.20653-6.9545-0.10384-0.32401-5.2334-0.31221-10.589-0.27011-16.408z" fill="#43D99B"/>
<path d="m178.64 68.126c1.8641 2.079 3.6085 4.4264 5.2177 6.8631 0.60016 0.90879 1.5453 2.5011 1.2067 2.9721-2.387 3.321-5.0395 6.455-7.7059 9.564-0.22029 0.25684-1.3579 0.093002-1.7307-0.24682-0.39726-0.36212-0.71242-1.3322-0.49878-1.7437 0.51753-0.99675 1.3113-1.871 2.0857-2.7098 3.4925-3.783 3.1912-4.9658-2.0555-6.8504 0.9153-2.5843 2.1114-5.0644 3.4808-7.8485z" fill="#43D99B"/>
<path d="m167.63 79.938c-4.2496 5.9975-7.3157 5.9479-11.48-0.51807 3.6089-0.019059 7.3474 0.26296 11.48 0.51807z" fill="#42D69E"/>
<path d="m146.95 63.573c-0.6068-0.38728-1.1899-1.1875-1.8679-2.2779 0.37256-0.83757 0.84-1.385 1.5181-2.0946 0.26492 1.2117 0.31921 2.5856 0.34985 4.3725z" fill="#42D69E"/>
<path d="m186.36 15.556c-0.57733-0.11188-1.2367-0.51158-2.0861-1.1203-0.18997-0.209-0.19093-0.67961-0.20653-0.91413 0.3696-0.18633 0.75478-0.13813 1.4248-0.028534 0.45183 0.63264 0.61879 1.2039 0.86781 2.063z" fill="#43D99B"/>
<path d="m180.74 14.144c-0.24016 0.41861-0.73444 0.96308-1.4537 1.6668 0.24988-0.40748 0.72473-0.9742 1.4537-1.6668z" fill="#43D99B"/>
<path d="m358.83 434.41c0.6542-0.37189 1.4811-0.38648 2.7167-0.39255 5.7476 0.45996 11.087 0.91138 16.426 1.3628-0.0401 0.46475-0.0802 0.9295-0.12027 1.3943-6.3074-0.27472-12.825 2.8591-19.022-2.3645z" fill="#5668A8"/>
<path d="m96.013 404.46v29.916c-0.90766 0.002655-1.8153 0.00528-2.723 0.007935-0.37212-9.998-0.61003-20.001 0.51227-30.44 0.55347-0.23572 0.81836-0.092651 1.3709 0.15646 0.46612 0.20102 0.65298 0.28049 0.83983 0.35996z" fill="#445987"/>
<path d="m94.894 403.98c-0.27326-0.12759-0.53815-0.27066-0.98926-0.53751-0.26768-2.2045-0.27629-4.3055-0.43014-6.3958-0.19424-2.6392 0.86974-3.9873 4.0642-3.5802 0.75101 0.71997 1.0309 1.1791 1.3109 1.6383 0.21041 0.49042 0.42082 0.9808 0.61436 2.0127-1.5346 2.6485-3.0523 4.7555-4.5701 6.8625z" fill="#459AB1"/>
<path d="m95.174 404.1c1.2385-2.2285 2.7562-4.3356 4.4016-6.7413 0.29851-0.27734 0.46938-0.25598 0.89244-0.18836 1.6346 4.3966 3.0169 8.7469 4.4767 13.465-0.10314 0.3826-0.28376 0.39706-0.73545 0.43933-1.3047-1.4535-2.1464-3.1367-3.4291-4.3559-1.1516-1.0946-2.7878-1.6792-4.4883-2.3739-0.4649 0.0354-0.65176-0.044068-1.1179-0.24509z" fill="#3B688C"/>
<path d="m98.863 394.78c-0.2929-0.13287-0.57282-0.59201-0.9414-1.3065 0.082665-0.27158 0.25398-0.28787 0.68263-0.31338 0.26215 0.42502 0.26695 0.85931 0.25877 1.6199z" fill="#3B688C"/>
<path d="m213.87 435.07c0.89433 0.2355 1.4484 0.44528 2.0025 0.65503-0.035095 0.26721-0.070191 0.53439-0.10527 0.80158h-11.628c-0.019043-0.49411-0.038086-0.98825-0.057144-1.4824 3.1492 0 6.2983 0 9.7878 0.025757z" fill="#5668A8"/>
<path d="m167.15 198.03c-3.978 10.631-3.849 21.276 0.060914 32.592 0.77974 1.2101 1.385 1.7614 1.9903 2.3127 1.1716 1.1461 2.3432 2.2921 3.6988 3.6834-1.4647 3.0589-3.2825 2.8674-5.9761 1.2924-2.2526-1.3172-5.0938-2.0594-7.7247-2.217-7.9109-0.47377-15.86-0.3445-23.763-0.89436-2.0185-0.14044-4.019-1.7791-5.8536-2.9926-2.0439-1.3521-3.8892-3.0044-6.12-4.6586-0.32671-12.83-0.35436-25.527-0.35156-38.678 4.3091 0.54131 8.5423 1.8879 12.877 2.448 6.2284 0.80482 12.526 1.1238 18.804 1.4607 1.9007 0.10202 3.8651-0.28348 5.7474-0.69058 3.6026-0.77916 7.1671-1.7339 11.217-2.594-1.0148 2.2517-2.4988 4.4816-4.4442 6.752-1.3843 0.028152-2.3072 0.015823-3.2301 0.003479 1.0226 0.72676 2.0451 1.4535 3.0677 2.1803z" fill="#3EC4AB"/>
<path d="m221.84 253.58c2.0717 3.5782-0.8295 3.6973-2.7437 3.9622-0.84982 0.11758-1.8879-1.1256-2.8406-1.7511 1.7711-0.78268 3.5421-1.5654 5.5843-2.211z" fill="#3CBBB2"/>
<path d="m297.51 238.17c-0.32126 0.35834-0.65561 0.58508-1.0212 0.73656-0.036377 0.01506-0.26282-0.42847-0.40103-0.65916 0.46677-0.076736 0.93353-0.15346 1.4222-0.077392z" fill="#3EC5AB"/>
<path d="m123.1 125.47c15.652-0.77145 31.274-1.0998 46.898-1.3724 5.7868-0.10098 12.292 1.6144 17.206-0.4732 8.6001-3.6538 17.361-0.58908 25.841-2.8227 3.7219-0.98038 7.9319 0.16666 10.394 4.2654 2.5496 4.2447 6.2385 4.6126 10.316 2.3165 3.1707-1.7854 6.1872-3.8489 9.3873-5.5755 1.5559-0.83943 3.3753-1.1905 5.4639-1.7814-0.067108 9.8952-0.53191 19.809-0.97304 29.723-0.13698 3.0788-1.7718 4.0952-4.6453 3.5054-1.4629-0.30028-3.1135-1.2075-4.3568-0.81613-9.932 3.1266-19.276-1.5832-28.913-1.8612-5.4536-0.15733-10.929 0.75485-16.402 0.89804-20.254 0.52983-40.511 1.0839-60.768 1.1639-1.9389 0.007644-4.254-2.9595-5.7346-5.0199-1.4923-2.0768-2.1618-4.7449-3.4461-7.3691-0.26826-4.9154-0.28217-9.6155-0.26622-14.781z" fill="#3FD2A3"/>
<path d="m282.27 150.28c-0.27618-12.281-0.30249-24.305-0.3028-36.796 0.79291 1.2985 1.2821 3.2666 2.3904 4.7817 1.7546 2.3985 3.5708 5.0628 6.0065 6.5737 3.0658 1.9017 5.9281 0.82649 7.6069-2.7913 0.79492-1.7131 2.1903-3.1474 3.6046-4.86 0.47049 14.152 0.64999 28.456 0.87424 43.209-4.1285-0.098831-8.3106-1.1505-12.473-1.0779-6.4934 0.11327-5.2851-5.6246-7.7068-9.0392z" fill="#41D0A3"/>
<path d="m353.52 173.29c0.28186 3.4005 0.34454 7.0789 0.38522 11.212-2.8094-3.209-2.3787-7.0372-0.38522-11.212z" fill="#3EC4AB"/>
<path d="m167.18 197.74c-1.0532-0.43436-2.0758-1.1611-3.0984-1.8879 0.9229 0.012344 1.8458 0.024673 2.9981 0.23331 0.19656 0.58493 0.16376 0.97356 0.1003 1.6546z" fill="#40CCA6"/>
<path d="m169.03 232.68c-0.42801-0.30002-1.0333-0.85133-1.7942-1.6765 0.43524 0.2925 1.0261 0.85884 1.7942 1.6765z" fill="#3EBFAE"/>
<path d="m323.23 401.73c0.77969-0.35635 1.4565-0.39136 2.6111-0.20828 1.0104 0.65265 1.5431 1.0872 2.0758 1.5217 0 0-0.017273 0.058288-0.012451 0.089508 1.0718 3.7805 2.4286 7.4792 3.0945 11.298 0.3855 2.2106-0.34167 4.6151-0.77429 7.2098-4.1303-0.093414-8.0544-0.46429-12.281-1.0935 0.72458-3.7958 1.7517-7.3333 3.0638-10.867 0.11838 1.9633-0.32492 3.9518-0.12241 5.8721 0.14752 1.3987 0.89001 3.5811 1.826 3.8568 1.4953 0.44049 4.8598-0.41525 4.8592-0.71774-0.00708-3.4697-0.26489-6.998-1.1087-10.346-0.13348-0.52963-3.4968-0.24533-5.3668-0.33734 0.67749-1.9857 1.355-3.9715 2.1353-6.2785z" fill="#4E3E87"/>
<path d="m321.08 408.26c1.8787-0.16458 5.242-0.44888 5.3755 0.080749 0.84378 3.3482 1.1016 6.8765 1.1087 10.346 6.11e-4 0.30249-3.3639 1.1582-4.8592 0.71774-0.93594-0.2757-1.6784-2.4581-1.826-3.8568-0.20252-1.9204 0.24078-3.9089 0.29794-6.193-0.10812-0.49597-0.1069-0.66711-0.096954-1.0949z" fill="#639"/>
<path d="m327.77 402.82c-0.38879-0.21374-0.92148-0.64828-1.5908-1.2924 0.39117 0.21753 0.91901 0.64456 1.5908 1.2924z" fill="#416490"/>
</svg>
